<svg xmlns="http://www.w3.org/2000/svg" width="64" height="64" viewBox="0 0 64 64">
  <g id="Group_459" data-name="Group 459" transform="translate(-273 -4937.801)">
    <g id="Group_431" data-name="Group 431">
      <circle id="Ellipse_57" data-name="Ellipse 57" cx="32" cy="32" r="32" transform="translate(273 4937.801)" fill="#6900f2"/>
      <g id="Page-1" transform="translate(287.012 4952.281)">
        <g id="_026---Idea" data-name="026---Idea" transform="translate(0.424)">
          <path id="Shape" d="M32.921,21.632a1.188,1.188,0,0,0-1.166-.964H30.608l-.084-.505a1.194,1.194,0,0,0-.992-.984c-.113-.018-.227-.03-.339-.045a3.623,3.623,0,0,0-.451-2.648,2.43,2.43,0,0,0-1.761-3.251,5.053,5.053,0,0,0-4.937-4.125c-.059,0-.112.008-.169.01a2.416,2.416,0,0,0-3.7-.46A4.076,4.076,0,0,0,15.961,8,4.123,4.123,0,0,0,12.72,9.6a2.958,2.958,0,0,0-3.781,2.658,2.444,2.444,0,0,0-1.5,2.252,2.415,2.415,0,0,0,.059.507,4.78,4.78,0,0,0-.57,4.1c-.159.022-.322.042-.475.064a1.2,1.2,0,0,0-1,.983l-.084.507H4.223a1.188,1.188,0,0,0-1.165.962L.457,34.979A1.782,1.782,0,0,0,2.209,37.1H14.594c.492.811,1.986,1.188,3.395,1.188s2.874-.368,3.38-1.188h12.4a1.782,1.782,0,0,0,1.753-2.121ZM9.238,15.582a1.254,1.254,0,0,1,.641-2.329,1.232,1.232,0,0,1,1,.5.594.594,0,0,0,.954-.708,2.4,2.4,0,0,0-1.684-.95,1.805,1.805,0,0,1,1.761-1.429,1.851,1.851,0,0,1,.216.024,3.9,3.9,0,0,0-.125.372.594.594,0,0,0,1.15.3,2.888,2.888,0,0,1,.308-.744,2.933,2.933,0,0,1,2.505-1.429,2.885,2.885,0,0,1,1.573.475,2.414,2.414,0,0,0-.14.779.594.594,0,0,0,1.188,0,1.249,1.249,0,1,1,2.5,0,.594.594,0,0,0,1.188,0c0-.046-.011-.089-.014-.135a3.855,3.855,0,0,1,3.517,2.973,2.41,2.41,0,0,0-.768.383.594.594,0,1,0,.713.95,1.252,1.252,0,0,1,1.836,1.62,1.267,1.267,0,0,1-.562.52.594.594,0,0,0,.253,1.128.586.586,0,0,0,.252-.056,2.439,2.439,0,0,0,.444-.277,2.537,2.537,0,0,1-.5,2.533l-.014.015a2.565,2.565,0,0,1-3.029.556,2.357,2.357,0,0,1-.287-.179,2.023,2.023,0,0,0,.157-2.09.594.594,0,0,0-1.061.535.884.884,0,0,1-.286,1.119.9.9,0,0,1-1.29-.329.594.594,0,1,0-1.062.532,2.059,2.059,0,0,0,1.851,1.145,2.037,2.037,0,0,0,.745-.147,3.515,3.515,0,0,0,.7.475,3.658,3.658,0,0,0,2.743.254,3.785,3.785,0,0,1-2.446,1.5.594.594,0,0,0,.093,1.18.632.632,0,0,0,.094-.007,4.881,4.881,0,0,0,1.054-.308,5.31,5.31,0,0,1,.443,1.02.612.612,0,0,1,.031.192.641.641,0,0,1-.39.589.672.672,0,0,1-.767-.206,3.791,3.791,0,0,0-1.738-1.155c-1.283-.43-1.779-.814-1.989-1.232a5.7,5.7,0,0,0,.91-.19.594.594,0,1,0-.349-1.136,4.5,4.5,0,0,1-1.025.188,4.408,4.408,0,0,1-1.968-.3.594.594,0,0,0-.666.166,2.543,2.543,0,0,1-4.1-2.974.6.6,0,0,0-1.022-.612,3.709,3.709,0,0,0-.34.764.891.891,0,0,1-.844-.875v-.015a.587.587,0,0,0-.594-.586.6.6,0,0,0-.594.6,2.067,2.067,0,0,0,1.844,2.05,3.728,3.728,0,0,0,.054.594,3.629,3.629,0,0,1-4.106-4.97,2.394,2.394,0,0,0,.442.352.594.594,0,0,0,.613-1.017ZM6.625,20.352c.274-.04.556-.076.837-.113a4.8,4.8,0,0,0,5.208,2.113,3.72,3.72,0,0,0,5.827.988,5.7,5.7,0,0,0,1.239.224c.287,1.088,1.116,1.747,2.858,2.331a2.632,2.632,0,0,1,1.209.8,1.892,1.892,0,0,0,1.435.674,1.8,1.8,0,0,0,.7-.144,1.829,1.829,0,0,0,1.11-1.681,1.762,1.762,0,0,0-.09-.562,6.492,6.492,0,0,0-.525-1.209,5.006,5.006,0,0,0,1.973-3.018,3.72,3.72,0,0,0,.342-.479c.2.026.4.048.6.081l2.144,12.9a20.386,20.386,0,0,0-12.914,0V25.817a.594.594,0,0,0-1.188,0v7.437a20.389,20.389,0,0,0-12.914,0ZM1.747,35.694a.589.589,0,0,1-.125-.487l2.6-13.352h.95l-1.864,11.2a1.192,1.192,0,0,0,1.533,1.327,19.869,19.869,0,0,1,9.809-.622l-.177,2.153H2.209a.6.6,0,0,1-.463-.219ZM17.989,37.1a3.5,3.5,0,0,1-2.372-.611l.2-2.465a12.692,12.692,0,0,1,1.911.641.6.6,0,0,0,.257.059.59.59,0,0,0,.257-.059,12.65,12.65,0,0,1,1.911-.645l.2,2.468a3.5,3.5,0,0,1-2.372.612Zm16.242-1.406a.6.6,0,0,1-.463.219H21.505l-.178-2.157a19.875,19.875,0,0,1,9.813.628,1.191,1.191,0,0,0,1.527-1.33l-1.862-11.2h.95l2.6,13.351A.589.589,0,0,1,34.231,35.694Z" transform="translate(-0.424 -3.249)" fill="#fff"/>
          <path id="Shape-2" data-name="Shape" d="M26.552,21.589a.594.594,0,0,0-.042.839,3.581,3.581,0,0,0,1.9,1.1,1.769,1.769,0,0,1-1.446.745.594.594,0,0,0,0,1.188,2.945,2.945,0,0,0,2.767-1.9A3.584,3.584,0,0,0,32.667,20.7.594.594,0,1,0,31.5,20.48a2.367,2.367,0,0,1-.983,1.508,2.424,2.424,0,0,1-3.126-.356.594.594,0,0,0-.839-.042Z" transform="translate(-10.956 -8.117)" fill="#fff"/>
          <path id="Shape-3" data-name="Shape" d="M22.794,19.326a.594.594,0,0,0,.594-.594,1.544,1.544,0,0,1,1.544-1.544.594.594,0,0,0,0-1.188A2.735,2.735,0,0,0,22.2,18.732a.594.594,0,0,0,.594.594Z" transform="translate(-9.267 -6.498)" fill="#fff"/>
          <path id="Shape-4" data-name="Shape" d="M30.188,1.188V.594A.594.594,0,0,0,29,.594v.594a.594.594,0,0,0,1.188,0Z" transform="translate(-12.029)" fill="#fff"/>
          <path id="Shape-5" data-name="Shape" d="M45.88,7.052l-.594.594a.594.594,0,1,0,.84.84l.594-.594a.594.594,0,1,0-.84-.84Z" transform="translate(-18.569 -2.79)" fill="#fff"/>
          <path id="Shape-6" data-name="Shape" d="M13.066,8.66a.594.594,0,0,0,.42-1.014l-.594-.594a.594.594,0,1,0-.84.84l.594.594a.594.594,0,0,0,.42.174Z" transform="translate(-5.073 -2.79)" fill="#fff"/>
          <path id="Shape-7" data-name="Shape" d="M20.705,3.729a.6.6,0,0,0,.227-.045.594.594,0,0,0,.321-.776l-.682-1.646a.594.594,0,1,0-1.1.455l.682,1.646a.594.594,0,0,0,.549.366Z" transform="translate(-8.14 -0.359)" fill="#fff"/>
          <path id="Shape-8" data-name="Shape" d="M38.922.948a.594.594,0,0,0-.776.321l-.682,1.646a.594.594,0,0,0,.321.777.6.6,0,0,0,.227.045.594.594,0,0,0,.549-.366l.682-1.646a.594.594,0,0,0-.321-.777Z" transform="translate(-15.448 -0.367)" fill="#fff"/>
          <path id="Shape-9" data-name="Shape" d="M49.918,16.3a.594.594,0,0,0,.227-.046l1.646-.682a.594.594,0,1,0-.454-1.1l-1.646.682a.594.594,0,0,0,.227,1.143Z" transform="translate(-20.282 -5.861)" fill="#fff"/>
          <path id="Shape-10" data-name="Shape" d="M7.916,16.257a.594.594,0,1,0,.455-1.1l-1.646-.682a.594.594,0,1,0-.454,1.1Z" transform="translate(-2.649 -5.861)" fill="#fff"/>
        </g>
      </g>
    </g>
  </g>
</svg>
