<svg xmlns="http://www.w3.org/2000/svg" width="894.241" height="1638.8" viewBox="0 0 894.241 1638.8">
  <g id="Group_510" data-name="Group 510" opacity="0.6">
    <path id="Path_7" data-name="Path 7" d="M73,1396.877H211.165V13.3L73,141.871Z" transform="translate(-73 241.923)" fill="#f7f7f7"/>
    <path id="Path_8" data-name="Path 8" d="M741.688,1638.8V516.2c-47.974-32.622-94.03-67.164-142-99.786l-3.838-1.919V307.035C480.708,201.492,363.651,101.705,246.593,0h0C192.862,49.893,139.132,101.705,85.4,151.6V1636.881H246.593V1375.9h0V305.116c44.136,30.7,86.354,63.326,130.49,94.029,0,86.354-1.919,172.707-1.919,260.98v976.755H476.87C567.062,1636.881,655.334,1636.881,741.688,1638.8Z" transform="translate(152.553)" fill="#f7f7f7"/>
  </g>
</svg>
