<svg xmlns="http://www.w3.org/2000/svg" xmlns:xlink="http://www.w3.org/1999/xlink" width="54" height="54" viewBox="0 0 54 54">
  <defs>
    <linearGradient id="linear-gradient" x1="0.5" x2="0.5" y2="1" gradientUnits="objectBoundingBox">
      <stop offset="0" stop-color="#cfba9f"/>
      <stop offset="0.456" stop-color="#ae8c61"/>
      <stop offset="1" stop-color="#937144"/>
    </linearGradient>
    <filter id="Ellipse_11" x="0" y="0" width="54" height="54" filterUnits="userSpaceOnUse">
      <feOffset dy="3" input="SourceAlpha"/>
      <feGaussianBlur stdDeviation="3" result="blur"/>
      <feFlood flood-color="#cfba9f"/>
      <feComposite operator="in" in2="blur"/>
      <feComposite in="SourceGraphic"/>
    </filter>
  </defs>
  <g id="Group_850" data-name="Group 850" transform="translate(-1235 -251.611)">
    <g id="Group_846" data-name="Group 846" transform="translate(-116 227.611)">
      <g transform="matrix(1, 0, 0, 1, 1351, 24)" filter="url(#Ellipse_11)">
        <circle id="Ellipse_11-2" data-name="Ellipse 11" cx="18" cy="18" r="18" transform="translate(9 6)" fill="url(#linear-gradient)"/>
      </g>
      <path id="Icon_awesome-instagram" data-name="Icon awesome-instagram" d="M9.621,6.926a4.934,4.934,0,1,0,4.934,4.934A4.926,4.926,0,0,0,9.621,6.926Zm0,8.142a3.208,3.208,0,1,1,3.208-3.208,3.214,3.214,0,0,1-3.208,3.208Zm6.287-8.343a1.151,1.151,0,1,1-1.151-1.151A1.148,1.148,0,0,1,15.908,6.724Zm3.268,1.168A5.7,5.7,0,0,0,17.621,3.86a5.733,5.733,0,0,0-4.032-1.554c-1.589-.09-6.351-.09-7.94,0a5.724,5.724,0,0,0-4.032,1.55A5.714,5.714,0,0,0,.062,7.888c-.09,1.589-.09,6.351,0,7.94A5.7,5.7,0,0,0,1.617,19.86a5.74,5.74,0,0,0,4.032,1.554c1.589.09,6.351.09,7.94,0a5.7,5.7,0,0,0,4.032-1.554,5.733,5.733,0,0,0,1.554-4.032c.09-1.589.09-6.347,0-7.936Zm-2.053,9.64a3.248,3.248,0,0,1-1.829,1.829c-1.267.5-4.273.386-5.673.386s-4.41.112-5.673-.386a3.248,3.248,0,0,1-1.829-1.829c-.5-1.267-.386-4.273-.386-5.673s-.112-4.41.386-5.673A3.248,3.248,0,0,1,3.949,4.358c1.267-.5,4.273-.386,5.673-.386s4.41-.112,5.673.386a3.248,3.248,0,0,1,1.829,1.829c.5,1.267.386,4.273.386,5.673S17.625,16.27,17.123,17.532Z" transform="translate(1368.381 36.64)" fill="#fff"/>
    </g>
  </g>
</svg>
