<svg xmlns="http://www.w3.org/2000/svg" width="64" height="64" viewBox="0 0 64 64">
  <g id="Group_465" data-name="Group 465" transform="translate(-624 -4814)">
    <circle id="Ellipse_32" data-name="Ellipse 32" cx="32" cy="32" r="32" transform="translate(624 4814)" fill="#30b442"/>
    <g id="Bus" transform="translate(633.816 4821.881)">
      <path id="Path_184" data-name="Path 184" d="M35.5,26.8H15.62A1.622,1.622,0,0,1,14,25.182V13.652a1.621,1.621,0,0,1,1.62-1.62H35.5a1.621,1.621,0,0,1,1.62,1.62V25.182A1.622,1.622,0,0,1,35.5,26.8ZM15.62,13.317a.336.336,0,0,0-.335.336V25.182a.336.336,0,0,0,.335.336H35.5a.336.336,0,0,0,.335-.336V13.652a.336.336,0,0,0-.335-.336Z" transform="translate(-3.375 -2.632)" fill="#fff"/>
      <path id="Path_185" data-name="Path 185" d="M32.814,9.729h-5.3a.642.642,0,1,1,0-1.284h5.3a.642.642,0,1,1,0,1.284Z" transform="translate(-7.983 -1.348)" fill="#fff"/>
      <path id="Path_186" data-name="Path 186" d="M37.23,10.738h-.945V8.794a4.121,4.121,0,0,0-4.116-4.116H12.2A4.121,4.121,0,0,0,8.082,8.794v1.944H7.137a2.572,2.572,0,0,0-2.569,2.569v3.7A2.572,2.572,0,0,0,7.137,19.58h.945V32.472a4.122,4.122,0,0,0,3.309,4.036v1.309a1.954,1.954,0,0,0,1.951,1.951h2.236a1.954,1.954,0,0,0,1.951-1.951V36.588h9.307v1.228a1.954,1.954,0,0,0,1.951,1.951h2.236a1.954,1.954,0,0,0,1.951-1.951V36.507a4.122,4.122,0,0,0,3.309-4.036V19.58h.945A2.572,2.572,0,0,0,39.8,17.011v-3.7a2.572,2.572,0,0,0-2.569-2.569ZM7.137,18.3a1.286,1.286,0,0,1-1.284-1.284v-3.7a1.286,1.286,0,0,1,1.284-1.284h.945V18.3Zm9.109,19.52a.668.668,0,0,1-.667.667H13.343a.668.668,0,0,1-.667-.667V36.588h3.57Zm14.778.667H28.788a.668.668,0,0,1-.667-.667V36.588h3.57v1.228a.668.668,0,0,1-.667.667ZM35,32.472A2.835,2.835,0,0,1,32.169,35.3H12.2a2.835,2.835,0,0,1-2.832-2.832V8.794A2.835,2.835,0,0,1,12.2,5.962h19.97A2.835,2.835,0,0,1,35,8.794Zm3.514-15.461A1.286,1.286,0,0,1,37.23,18.3h-.945V12.023h.945a1.286,1.286,0,0,1,1.284,1.284Z" fill="#fff"/>
      <path id="Path_187" data-name="Path 187" d="M32.546,48.627H27.51A1.408,1.408,0,0,1,26.1,47.22V46.1a1.408,1.408,0,0,1,1.407-1.407h5.036A1.408,1.408,0,0,1,33.952,46.1V47.22a1.408,1.408,0,0,1-1.406,1.407ZM27.51,45.979a.122.122,0,0,0-.122.122V47.22a.122.122,0,0,0,.122.122h5.036a.122.122,0,0,0,.122-.122V46.1a.122.122,0,0,0-.122-.122Z" transform="translate(-7.707 -14.32)" fill="#fff"/>
      <path id="Path_188" data-name="Path 188" d="M21.427,41.68H17.694a3.09,3.09,0,0,1-3.086-3.086v-.645a.642.642,0,0,1,.642-.642h3.734a3.09,3.09,0,0,1,3.086,3.086v.645a.642.642,0,0,1-.642.642Zm-5.536-3.089v0a1.8,1.8,0,0,0,1.8,1.8l3.092,0a1.8,1.8,0,0,0-1.8-1.8Z" transform="translate(-3.593 -11.677)" fill="#fff"/>
      <path id="Path_189" data-name="Path 189" d="M42.148,41.68H38.414a.642.642,0,0,1-.642-.642v-.645a3.09,3.09,0,0,1,3.086-3.086h3.734a.642.642,0,0,1,.642.642v.645a3.09,3.09,0,0,1-3.086,3.086ZM39.056,40.4h3.092a1.8,1.8,0,0,0,1.8-1.8v0H40.858a1.8,1.8,0,0,0-1.8,1.8Z" transform="translate(-11.882 -11.677)" fill="#fff"/>
    </g>
  </g>
</svg>
