<svg xmlns="http://www.w3.org/2000/svg" xmlns:xlink="http://www.w3.org/1999/xlink" width="82" height="82" viewBox="0 0 82 82">
  <defs>
    <linearGradient id="linear-gradient" x1="0.5" x2="0.5" y2="1" gradientUnits="objectBoundingBox">
      <stop offset="0" stop-color="#cfba9f"/>
      <stop offset="0.456" stop-color="#ae8c61"/>
      <stop offset="1" stop-color="#937144"/>
    </linearGradient>
    <filter id="Ellipse_32" x="0" y="0" width="82" height="82" filterUnits="userSpaceOnUse">
      <feOffset dy="3" input="SourceAlpha"/>
      <feGaussianBlur stdDeviation="3" result="blur"/>
      <feFlood flood-color="#fff" flood-opacity="0.161"/>
      <feComposite operator="in" in2="blur"/>
      <feComposite in="SourceGraphic"/>
    </filter>
  </defs>
  <g id="Group_407" data-name="Group 407" transform="translate(-264 -3254.896)">
    <g id="Group_406" data-name="Group 406">
      <g transform="matrix(1, 0, 0, 1, 264, 3254.9)" filter="url(#Ellipse_32)">
        <circle id="Ellipse_32-2" data-name="Ellipse 32" cx="32" cy="32" r="32" transform="translate(9 6)" fill="url(#linear-gradient)"/>
      </g>
      <g id="blueprint" transform="translate(288.509 3277.78)">
        <g id="Group_323" data-name="Group 323" transform="translate(0 0)">
          <g id="Group_322" data-name="Group 322" transform="translate(0 0)">
            <path id="Path_131" data-name="Path 131" d="M32.3,21.333H.687A.687.687,0,0,0,0,22.02V39.886a.687.687,0,0,0,.687.687H11.681a.687.687,0,0,0,.687-.687V37.137a.687.687,0,1,0-1.374,0V39.2H1.374V22.707h9.62v.344a.687.687,0,0,0,1.374,0v-.344h19.24v8.246H18.553a.687.687,0,0,0-.687.687v2.748a.687.687,0,1,0,1.374,0V32.327H31.608V43.321H22.675a.687.687,0,0,0-.687.687v6.184H1.374V48.131a.687.687,0,1,0-1.374,0V50.88a.687.687,0,0,0,.687.687H22.675a.687.687,0,0,0,.687-.687V44.7H32.3a.687.687,0,0,0,.687-.687V22.02A.688.688,0,0,0,32.3,21.333Z" transform="translate(0 -21.333)" fill="#fff"/>
            <path id="Path_132" data-name="Path 132" d="M171.353,89.355a.687.687,0,0,0,.687-.687v-1.58a.687.687,0,1,0-1.374,0v1.58A.687.687,0,0,0,171.353,89.355Z" transform="translate(-159.672 -82.208)" fill="#fff"/>
            <path id="Path_133" data-name="Path 133" d="M150.02,160.686a.687.687,0,1,0,0,1.374h1.374a.687.687,0,0,0,.687-.687v-.687a.687.687,0,1,0-1.374,0h-.687Z" transform="translate(-139.713 -151.066)" fill="#fff"/>
            <path id="Path_134" data-name="Path 134" d="M86.02,170.666a.687.687,0,1,0,0,1.374h1.374a.687.687,0,0,0,0-1.374H86.02Z" transform="translate(-79.836 -161.046)" fill="#fff"/>
            <path id="Path_135" data-name="Path 135" d="M22.02,172.04h1.374a.687.687,0,1,0,0-1.374H22.02a.687.687,0,1,0,0,1.374Z" transform="translate(-19.959 -161.046)" fill="#fff"/>
          </g>
        </g>
      </g>
    </g>
  </g>
</svg>
