<svg xmlns="http://www.w3.org/2000/svg" xmlns:xlink="http://www.w3.org/1999/xlink" width="82" height="82" viewBox="0 0 82 82">
  <defs>
    <linearGradient id="linear-gradient" x1="0.5" x2="0.5" y2="1" gradientUnits="objectBoundingBox">
      <stop offset="0" stop-color="#cfba9f"/>
      <stop offset="0.456" stop-color="#ae8c61"/>
      <stop offset="1" stop-color="#937144"/>
    </linearGradient>
    <filter id="Ellipse_68" x="0" y="0" width="82" height="82" filterUnits="userSpaceOnUse">
      <feOffset dy="3" input="SourceAlpha"/>
      <feGaussianBlur stdDeviation="3" result="blur"/>
      <feFlood flood-color="#fff" flood-opacity="0.161"/>
      <feComposite operator="in" in2="blur"/>
      <feComposite in="SourceGraphic"/>
    </filter>
  </defs>
  <g id="Group_854" data-name="Group 854" transform="translate(-1199.836 -4636)">
    <g transform="matrix(1, 0, 0, 1, 1199.84, 4636)" filter="url(#Ellipse_68)">
      <circle id="Ellipse_68-2" data-name="Ellipse 68" cx="32" cy="32" r="32" transform="translate(9 6)" fill="url(#linear-gradient)"/>
    </g>
    <g id="badge" transform="translate(1227.907 4655.094)">
      <path id="Path_115" data-name="Path 115" d="M99.8,20.8a1.708,1.708,0,0,1-.277-1.026l.087-1.581A2.585,2.585,0,0,0,98.2,15.745l-1.4-.708a1.681,1.681,0,0,1-.747-.748l-.707-1.4A2.582,2.582,0,0,0,92.9,11.473l-1.578.087a1.7,1.7,0,0,1-1.023-.278l-1.3-.862a2.576,2.576,0,0,0-2.841,0l-1.305.862a1.7,1.7,0,0,1-1.022.277l-1.579-.087A2.58,2.58,0,0,0,79.8,12.888l-.707,1.4a1.682,1.682,0,0,1-.747.748l-1.4.708a2.586,2.586,0,0,0-1.413,2.449l.087,1.58a1.708,1.708,0,0,1-.277,1.026l-.861,1.307a2.585,2.585,0,0,0,0,2.845l.86,1.307a1.707,1.707,0,0,1,.277,1.025l-.087,1.581a2.586,2.586,0,0,0,1.414,2.449l1.4.707a1.681,1.681,0,0,1,.747.748l.707,1.4q.044.087.093.169L75.4,41.49a.446.446,0,0,0,.41.682l4.756-.347,1.752,4.435a.446.446,0,0,0,.373.28l.041,0a.446.446,0,0,0,.377-.209l4.463-7.1,4.463,7.1a.446.446,0,0,0,.377.209l.041,0a.446.446,0,0,0,.373-.28l1.752-4.436,4.756.347a.446.446,0,0,0,.41-.682l-4.493-7.151q.049-.082.093-.169l.707-1.4a1.681,1.681,0,0,1,.747-.748l1.4-.708a2.586,2.586,0,0,0,1.413-2.449l-.087-1.581a1.707,1.707,0,0,1,.277-1.025l.86-1.307a2.585,2.585,0,0,0,0-2.845ZM82.824,45.114l-1.549-3.921a.446.446,0,0,0-.447-.281l-4.2.307,3.884-6.183a2.581,2.581,0,0,0,1.739.55l1.578-.087a1.7,1.7,0,0,1,1.023.278l.951.628,1.248,1.987Zm15.7-3.9-4.2-.307a.446.446,0,0,0-.447.281l-1.549,3.922-5.069-8.069a2.546,2.546,0,0,0,1.741-.406l1.305-.862a1.7,1.7,0,0,1,1.022-.278l1.578.087a2.58,2.58,0,0,0,1.739-.55Zm1.395-16.757-.86,1.307a2.605,2.605,0,0,0-.422,1.565l.087,1.581a1.694,1.694,0,0,1-.926,1.6l-1.4.708a2.567,2.567,0,0,0-1.14,1.142l-.707,1.4a1.688,1.688,0,0,1-1.6.927l-1.579-.087a2.6,2.6,0,0,0-1.562.424l-1.305.862a1.685,1.685,0,0,1-1.86,0l-1.3-.862a2.6,2.6,0,0,0-1.426-.428c-.046,0-.091,0-.137,0L82.2,34.7a1.688,1.688,0,0,1-1.6-.927l-.707-1.4a2.567,2.567,0,0,0-1.14-1.142l-1.4-.707a1.694,1.694,0,0,1-.926-1.6l.087-1.581a2.605,2.605,0,0,0-.422-1.565l-.86-1.307a1.7,1.7,0,0,1,0-1.865l.86-1.307a2.605,2.605,0,0,0,.422-1.565l-.087-1.581a1.694,1.694,0,0,1,.926-1.6l1.4-.708a2.567,2.567,0,0,0,1.14-1.142l.707-1.4a1.688,1.688,0,0,1,1.6-.927l1.579.087a2.6,2.6,0,0,0,1.562-.424l1.3-.862a1.685,1.685,0,0,1,1.859,0l1.3.862a2.6,2.6,0,0,0,1.563.424l1.578-.087a1.689,1.689,0,0,1,1.6.927l.707,1.4a2.567,2.567,0,0,0,1.14,1.142l1.4.708a1.694,1.694,0,0,1,.927,1.6l-.087,1.58a2.605,2.605,0,0,0,.422,1.565l.86,1.307a1.7,1.7,0,0,1,0,1.865Z" transform="translate(-74.057 -9.993)" fill="#fff" stroke="#fff" stroke-width="0.2"/>
      <path id="Path_116" data-name="Path 116" d="M137.971,64.524a9.485,9.485,0,1,0,9.472,9.485A9.489,9.489,0,0,0,137.971,64.524Zm0,18.078a8.593,8.593,0,1,1,8.58-8.593A8.6,8.6,0,0,1,137.971,82.6Z" transform="translate(-124.456 -60.473)" fill="#fff" stroke="#fff" stroke-width="0.2"/>
      <path id="Path_117" data-name="Path 117" d="M195.8,123.59l-3.067-.446-1.371-2.783a.446.446,0,0,0-.8,0l-1.372,2.783-3.066.446a.446.446,0,0,0-.247.76l2.219,2.166-.524,3.059a.446.446,0,0,0,.647.47l2.743-1.444,2.742,1.444a.446.446,0,0,0,.647-.47l-.524-3.059,2.219-2.166a.446.446,0,0,0-.247-.76Zm-2.762,2.452a.446.446,0,0,0-.128.394l.411,2.4-2.15-1.133a.445.445,0,0,0-.415,0l-2.151,1.132.411-2.4a.446.446,0,0,0-.128-.394l-1.741-1.7,2.406-.35a.446.446,0,0,0,.336-.244l1.075-2.182,1.075,2.182a.446.446,0,0,0,.336.244l2.406.35Z" transform="translate(-177.444 -111.932)" fill="#fff" stroke="#fff" stroke-width="0.2"/>
      <path id="Path_118" data-name="Path 118" d="M231.21,93.169a.449.449,0,0,0,.089-.009c.112-.023.227-.043.341-.06a.446.446,0,0,0-.132-.882c-.13.019-.26.042-.387.068a.446.446,0,0,0,.088.883Z" transform="translate(-219.123 -86.106)" fill="#fff" stroke="#fff" stroke-width="0.2"/>
      <path id="Path_119" data-name="Path 119" d="M158.632,99.665a.446.446,0,0,0-.349-.82,7.594,7.594,0,0,0-4.628,7,.446.446,0,1,0,.891,0A6.7,6.7,0,0,1,158.632,99.665Z" transform="translate(-147.742 -92.211)" fill="#fff" stroke="#fff" stroke-width="0.2"/>
    </g>
  </g>
</svg>
