<svg xmlns="http://www.w3.org/2000/svg" xmlns:xlink="http://www.w3.org/1999/xlink" width="82" height="82" viewBox="0 0 82 82">
  <defs>
    <linearGradient id="linear-gradient" x1="0.5" x2="0.5" y2="1" gradientUnits="objectBoundingBox">
      <stop offset="0" stop-color="#cfba9f"/>
      <stop offset="0.456" stop-color="#ae8c61"/>
      <stop offset="1" stop-color="#937144"/>
    </linearGradient>
    <filter id="Ellipse_55" x="0" y="0" width="82" height="82" filterUnits="userSpaceOnUse">
      <feOffset dy="3" input="SourceAlpha"/>
      <feGaussianBlur stdDeviation="3" result="blur"/>
      <feFlood flood-color="#fff" flood-opacity="0.161"/>
      <feComposite operator="in" in2="blur"/>
      <feComposite in="SourceGraphic"/>
    </filter>
  </defs>
  <g id="Group_412" data-name="Group 412" transform="translate(-1200 -3491)">
    <g transform="matrix(1, 0, 0, 1, 1200, 3491)" filter="url(#Ellipse_55)">
      <circle id="Ellipse_55-2" data-name="Ellipse 55" cx="32" cy="32" r="32" transform="translate(9 6)" fill="url(#linear-gradient)"/>
    </g>
    <path id="balcony" d="M28.756,14.858H27.8v-.494a.435.435,0,0,0-.434-.434H26.4v-1.06a1.363,1.363,0,1,0-1.393-2.26V.9a.9.9,0,0,0-.9-.9H5.541a.9.9,0,0,0-.9.9V12.165a1.362,1.362,0,0,0-1.764,1.764H2.292a.434.434,0,0,0-.434.434v.494H.9a.9.9,0,0,0-.9.9v7.429a.9.9,0,0,0,.9.9H28.756a.9.9,0,0,0,.9-.9V15.756a.9.9,0,0,0-.9-.9ZM25.97,11.084a.494.494,0,1,1-.494.494A.495.495,0,0,1,25.97,11.084Zm-.434,1.786v1.06h-.524V12.546a1.365,1.365,0,0,0,.524.324Zm-5.137-.8a.494.494,0,1,1,.494-.494A.495.495,0,0,1,20.4,12.072Zm.434.8a1.363,1.363,0,1,0-.869,0v1.06H18.883a1.363,1.363,0,1,0-2.54,0h-.587a.434.434,0,0,0-.434.434v.494h-.988v-.494a.434.434,0,0,0-.434-.434H12.94v-1.06a1.363,1.363,0,1,0-.869,0v1.06H10.99a1.363,1.363,0,1,0-2.54,0H7.369v-1.06a1.363,1.363,0,0,0,0-2.583V2.726h4.7V8.792a.434.434,0,1,0,.869,0V6.441h9.345v5.971a1.36,1.36,0,0,0-.371,1.518H20.833v-1.06Zm-3.714.565a.494.494,0,1,1,.494.494A.495.495,0,0,1,17.119,13.435Zm-4.613-1.363A.494.494,0,1,1,13,11.578.495.495,0,0,1,12.506,12.072Zm-3.28,1.363a.494.494,0,1,1,.494.494A.495.495,0,0,1,9.226,13.435ZM6.934,11.084a.494.494,0,1,1-.494.494A.495.495,0,0,1,6.934,11.084ZM22.286,2.726v.988H12.94V2.726ZM12.94,4.583h9.345v.988H12.94Zm9.75,8.851a.494.494,0,1,1,.494.494A.495.495,0,0,1,22.69,13.435ZM5.512.9a.03.03,0,0,1,.03-.03H24.113a.03.03,0,0,1,.03.03V12.467a1.359,1.359,0,0,0-.959-.4h-.03V2.292a.434.434,0,0,0-.434-.434H6.934a.435.435,0,0,0-.434.434v7.994a1.363,1.363,0,0,0,0,2.583v1.06H5.512ZM3.655,13.435a.494.494,0,1,1,.494.494A.495.495,0,0,1,3.655,13.435Zm9.81,1.363V16.22a.5.5,0,0,1-.494.494H3.22a.494.494,0,0,1-.494-.494V14.8Zm15.321,8.387a.03.03,0,0,1-.03.03H.9a.03.03,0,0,1-.03-.03V15.756a.03.03,0,0,1,.03-.03h.958v.494A1.365,1.365,0,0,0,3.22,17.583h9.75a1.365,1.365,0,0,0,1.363-1.363v-.494h.988v.494a1.364,1.364,0,0,0,1.363,1.363h7.428a.434.434,0,1,0,0-.869H16.684a.5.5,0,0,1-.494-.494V14.8H26.928V16.22a.5.5,0,0,1-.494.494H25.97a.434.434,0,1,0,0,.869h.464A1.364,1.364,0,0,0,27.8,16.22v-.494h.959a.03.03,0,0,1,.03.03Zm0,0" transform="translate(1226.173 3516.958)" fill="#fff"/>
  </g>
</svg>
