<svg xmlns="http://www.w3.org/2000/svg" xmlns:xlink="http://www.w3.org/1999/xlink" width="82" height="82" viewBox="0 0 82 82">
  <defs>
    <linearGradient id="linear-gradient" x1="0.5" x2="0.5" y2="1" gradientUnits="objectBoundingBox">
      <stop offset="0" stop-color="#cfba9f"/>
      <stop offset="0.456" stop-color="#ae8c61"/>
      <stop offset="1" stop-color="#937144"/>
    </linearGradient>
    <filter id="Ellipse_53" x="0" y="0" width="82" height="82" filterUnits="userSpaceOnUse">
      <feOffset dy="3" input="SourceAlpha"/>
      <feGaussianBlur stdDeviation="3" result="blur"/>
      <feFlood flood-color="#fff" flood-opacity="0.161"/>
      <feComposite operator="in" in2="blur"/>
      <feComposite in="SourceGraphic"/>
    </filter>
  </defs>
  <g id="Group_409" data-name="Group 409" transform="translate(-264 -3510)">
    <g transform="matrix(1, 0, 0, 1, 264, 3510)" filter="url(#Ellipse_53)">
      <circle id="Ellipse_53-2" data-name="Ellipse 53" cx="32" cy="32" r="32" transform="translate(9 6)" fill="url(#linear-gradient)"/>
    </g>
    <g id="restaurant" transform="translate(290 3534)">
      <path id="Union_23" data-name="Union 23" d="M.426,29a.425.425,0,1,1,0-.85H2.769V25.729a.425.425,0,0,1,.851,0V28.15h.614v-.977a.687.687,0,0,1,.687-.685h.143v-10a.957.957,0,0,1,.955-.955h5.156a.959.959,0,0,1,.957.955v2.064a.425.425,0,1,1-.85,0V16.488a.107.107,0,0,0-.107-.1H6.018a.107.107,0,0,0-.107.1v10h5.371V20.536a.425.425,0,0,1,.85,0v5.952h.141a.687.687,0,0,1,.687.685v.977h1.656V19.444a.425.425,0,0,1,.85,0v5.479h2.351a.725.725,0,0,1,.739.709V28.15h.832a1.174,1.174,0,0,1-.042-.3.425.425,0,1,1,.85,0,.3.3,0,0,0,.606,0V24.02H17.771a1.3,1.3,0,0,1-1.3-1.3V22.3a.513.513,0,0,1,.513-.511h2.442a2.107,2.107,0,0,1,1.434-1.751.425.425,0,0,1,.836,0,2.11,2.11,0,0,1,1.434,1.751h2.34a.512.512,0,0,1,.512.511v.424a1.3,1.3,0,0,1-1.3,1.3h-3.03v3.827a.3.3,0,1,0,.606,0,.425.425,0,1,1,.85,0,1.2,1.2,0,0,1-.041.3H24V25.632a.726.726,0,0,1,.739-.709h2.353V19.444a.425.425,0,0,1,.85,0V28.15h.628a.425.425,0,1,1,0,.85Zm24.426-.85h2.24V25.773h-2.24Zm-9.387,0h2.24V25.773h-2.24Zm-10.382,0h7.026v-.814H5.083ZM17.32,22.722a.449.449,0,0,0,.45.448h6.913a.449.449,0,0,0,.45-.448v-.085H17.32Zm2.972-.935h1.973a1.12,1.12,0,0,0-.986-.957A1.118,1.118,0,0,0,20.292,21.788ZM2.769,23.738V12.479A1.991,1.991,0,0,1,0,10.649V8.814a.3.3,0,0,1,0-.042.071.071,0,0,0,0-.021c0-.008,0-.016,0-.021a.421.421,0,0,1,.083-.183L2.3,5.289A2.251,2.251,0,0,1,3.94,4.306V1.3A1.3,1.3,0,0,1,5.237,0h18.52a1.3,1.3,0,0,1,1.3,1.3V4.306a2.251,2.251,0,0,1,1.644.982l2.177,3.217a.427.427,0,0,1,.126.3v1.84a1.99,1.99,0,0,1-2.777,1.826v7.639a.425.425,0,1,1-.85,0V11.964a1.987,1.987,0,0,1-3.054-.087,1.988,1.988,0,0,1-3.128,0,1.987,1.987,0,0,1-3.127,0,1.988,1.988,0,0,1-3.128,0,1.99,1.99,0,0,1-3.13,0,1.988,1.988,0,0,1-3.128,0,1.987,1.987,0,0,1-3.062.079V23.738a.425.425,0,0,1-.851,0ZM25.876,10.649a1.139,1.139,0,1,0,2.278,0V9.236H25.876Zm-3.128,0a1.139,1.139,0,1,0,2.278,0V9.236H22.748Zm-3.13,0a1.139,1.139,0,1,0,2.278,0V9.236H19.618Zm-3.128,0a1.139,1.139,0,1,0,2.278,0V9.236H16.49Zm-3.127,0a1.139,1.139,0,1,0,2.277,0V9.236H13.363Zm-3.128,0a1.139,1.139,0,1,0,2.278,0V9.236H10.235Zm-3.13,0a1.14,1.14,0,1,0,2.28,0V9.236H7.105Zm-3.128,0a1.14,1.14,0,1,0,2.28,0V9.236H3.978Zm-3.127,0a1.14,1.14,0,1,0,2.28,0V9.236H.85ZM24.1,5.329,25.7,8.385h2.064L26,5.764a1.416,1.416,0,0,0-1.171-.622h-.84C24.024,5.2,24.062,5.263,24.1,5.329Zm-2.619.047,1.129,3.009h2.137l-1.4-2.66a.966.966,0,0,0-.81-.582H21.375C21.411,5.215,21.445,5.295,21.476,5.376Zm-2.6.056.667,2.953H21.7L20.68,5.675c-.136-.367-.326-.533-.447-.533h-1.44C18.826,5.246,18.852,5.345,18.872,5.432Zm-2.633.063.216,2.89h2.212L18.043,5.62a1.461,1.461,0,0,0-.176-.477h-1.66C16.222,5.259,16.231,5.378,16.239,5.495Zm-2.628.063L13.4,8.385H15.6l-.212-2.827c-.014-.188-.03-.321-.044-.416H13.656C13.64,5.237,13.624,5.37,13.61,5.558Zm-2.65.062-.624,2.765h2.211l.216-2.89c.009-.117.017-.235.031-.352H11.137A1.379,1.379,0,0,0,10.96,5.62Zm-2.639.056L7.306,8.385H9.465l.666-2.953c.02-.087.047-.186.081-.289H8.769C8.65,5.143,8.46,5.309,8.321,5.675Zm-2.67.049-1.4,2.66H6.4L7.527,5.376a2.487,2.487,0,0,1,.1-.233H6.46A.964.964,0,0,0,5.651,5.725ZM3,5.764,1.226,8.385H3.291L4.9,5.329a1.876,1.876,0,0,1,.109-.186H4.17A1.41,1.41,0,0,0,3,5.764ZM4.79,4.292H24.206V2.866H21.68a.425.425,0,0,1,0-.85h2.526V1.3a.451.451,0,0,0-.449-.45H5.237a.451.451,0,0,0-.448.45v.716H19.575a.425.425,0,0,1,0,.85H4.79Zm4.9,17.265a.425.425,0,1,1,.426.424A.425.425,0,0,1,9.69,21.558Z" fill="#fff"/>
    </g>
  </g>
</svg>
