<svg xmlns="http://www.w3.org/2000/svg" xmlns:xlink="http://www.w3.org/1999/xlink" width="82" height="82" viewBox="0 0 82 82">
  <defs>
    <linearGradient id="linear-gradient" x1="0.5" x2="0.5" y2="1" gradientUnits="objectBoundingBox">
      <stop offset="0" stop-color="#cfba9f"/>
      <stop offset="0.456" stop-color="#ae8c61"/>
      <stop offset="1" stop-color="#937144"/>
    </linearGradient>
    <filter id="Ellipse_32" x="0" y="0" width="82" height="82" filterUnits="userSpaceOnUse">
      <feOffset dy="3" input="SourceAlpha"/>
      <feGaussianBlur stdDeviation="3" result="blur"/>
      <feFlood flood-color="#fff" flood-opacity="0.161"/>
      <feComposite operator="in" in2="blur"/>
      <feComposite in="SourceGraphic"/>
    </filter>
  </defs>
  <g id="Group_853" data-name="Group 853" transform="translate(-264 -4636.104)">
    <g transform="matrix(1, 0, 0, 1, 264, 4636.1)" filter="url(#Ellipse_32)">
      <circle id="Ellipse_32-2" data-name="Ellipse 32" cx="32" cy="32" r="32" transform="translate(9 6)" fill="url(#linear-gradient)"/>
    </g>
    <g id="condominium" transform="translate(288.422 4656.53)">
      <path id="Union_22" data-name="Union 22" d="M7234.079-4554.223a.5.5,0,0,1-.5-.5.5.5,0,0,1,.5-.5h4.021v-1.05a3.006,3.006,0,0,1-2.3-1.851,3,3,0,0,1,.394-2.925,2.487,2.487,0,0,1,.571-2.416,1.968,1.968,0,0,1-.171-.8,2.011,2.011,0,0,1,2.009-2.011,2.011,2.011,0,0,1,2.01,2.011,1.955,1.955,0,0,1-.173.806,2.483,2.483,0,0,1,.572,2.415,3.005,3.005,0,0,1,.392,2.924,3,3,0,0,1-2.3,1.851v1.05h3.518v-25.125h-1.507a.5.5,0,0,1-.5-.5v-2.01a.5.5,0,0,1,.5-.5h16.08a.5.5,0,0,1,.5.5v2.01a.5.5,0,0,1-.5.5h-1.508v25.125h4.02v-.736l-1.283-.855a.505.505,0,0,1-.141-.7.5.5,0,0,1,.7-.139l.726.483v-.613a3,3,0,0,1-2.3-1.85,3,3,0,0,1,.394-2.926,2.488,2.488,0,0,1,.572-2.415,1.946,1.946,0,0,1-.173-.8,2.011,2.011,0,0,1,2.011-2.011,2.01,2.01,0,0,1,2.009,2.011,1.976,1.976,0,0,1-.171.8,2.49,2.49,0,0,1,.57,2.417,3,3,0,0,1,.394,2.924,3.006,3.006,0,0,1-2.3,1.85v2.558h1.508a.5.5,0,0,1,.5.5.5.5,0,0,1-.5.5Zm16.583-5.026a.5.5,0,0,1,.5.5v3.518h3.517v-25.125h-11.054v25.125h3.518v-3.518a.5.5,0,0,1,.5-.5Zm-2.512,4.021h2.009v-3.015h-2.009Zm-9.045-3.518v1.437a1.994,1.994,0,0,0,1.431-1.375,1.993,1.993,0,0,0-.465-1.929.507.507,0,0,1-.091-.545,1.485,1.485,0,0,0-.479-1.809.5.5,0,0,1-.1-.7,1,1,0,0,0,.208-.6,1,1,0,0,0-1.006-1,1,1,0,0,0-1,1,1.008,1.008,0,0,0,.208.607.5.5,0,0,1-.1.7,1.484,1.484,0,0,0-.479,1.808.507.507,0,0,1-.091.545,2,2,0,0,0-.541,1.36,2.01,2.01,0,0,0,1.507,1.94v-1.437a.5.5,0,0,1,.5-.5A.5.5,0,0,1,7239.1-4558.745Zm21.606-1.508v1.437a1.993,1.993,0,0,0,1.431-1.375,2,2,0,0,0-.463-1.928.506.506,0,0,1-.093-.545,1.487,1.487,0,0,0-.479-1.81.5.5,0,0,1-.1-.7,1.007,1.007,0,0,0,.208-.6,1.006,1.006,0,0,0-1-1.006,1.006,1.006,0,0,0-1.006,1.006,1.009,1.009,0,0,0,.209.607.5.5,0,0,1-.1.7,1.491,1.491,0,0,0-.481,1.81.5.5,0,0,1-.091.545,2,2,0,0,0-.542,1.362,2.009,2.009,0,0,0,1.507,1.938v-1.437a.5.5,0,0,1,.5-.5A.5.5,0,0,1,7260.711-4560.253Zm-19.095-21.1h15.075v-1h-15.075Zm8.542,21.1a.5.5,0,0,1-.5-.5v-3.017a.5.5,0,0,1,.5-.5h3.015a.5.5,0,0,1,.5.5v3.017a.5.5,0,0,1-.5.5Zm.5-1h2.011v-2.01h-2.011Zm-5.527,1a.5.5,0,0,1-.5-.5v-3.017a.5.5,0,0,1,.5-.5h3.015a.5.5,0,0,1,.5.5v3.017a.5.5,0,0,1-.5.5Zm.5-1h2.011v-2.01h-2.011Zm14.071-.5v-.5a.5.5,0,0,1,.5-.5.5.5,0,0,1,.5.5v.5a.5.5,0,0,1-.5.5A.5.5,0,0,1,7259.707-4561.76Zm-9.548-3.516a.5.5,0,0,1-.5-.5v-3.015a.5.5,0,0,1,.5-.5h3.015a.5.5,0,0,1,.5.5v3.015a.5.5,0,0,1-.5.5Zm.5-1.006h2.011v-2.009h-2.011Zm-5.527,1.006a.5.5,0,0,1-.5-.5v-3.015a.5.5,0,0,1,.5-.5h3.015a.5.5,0,0,1,.5.5v3.015a.5.5,0,0,1-.5.5Zm.5-1.006h2.011v-2.009h-2.011Zm-5.024-3.015h-3.518a2.008,2.008,0,0,1-2-1.894,2.011,2.011,0,0,1,1.773-2.113,2,2,0,0,1,2.014-1,2,2,0,0,1,1.675,1.5,1.759,1.759,0,0,1,1.561,1.591,1.756,1.756,0,0,1-1.249,1.843.446.446,0,0,1-.243.073Zm-4.531-2a1,1,0,0,0,1.013,1h3.361c.019-.005.037-.011.057-.015a.755.755,0,0,0,.6-.74.768.768,0,0,0-.285-.578.761.761,0,0,0-.623-.159.5.5,0,0,1-.425-.109.5.5,0,0,1-.179-.4.105.105,0,0,0,0-.035,1,1,0,0,0-.846-.971,1,1,0,0,0-1.1.665.5.5,0,0,1-.507.337l-.075-.009A1.006,1.006,0,0,0,7236.081-4571.3Zm14.078,1a.5.5,0,0,1-.5-.5v-3.015a.5.5,0,0,1,.5-.5h3.015a.5.5,0,0,1,.5.5v3.015a.5.5,0,0,1-.5.5Zm.5-1h2.011v-2.011h-2.011Zm-5.527,1a.5.5,0,0,1-.5-.5v-3.015a.5.5,0,0,1,.5-.5h3.015a.5.5,0,0,1,.5.5v3.015a.5.5,0,0,1-.5.5Zm.5-1h2.011v-2.011h-2.011Zm12.563-3.518a2.009,2.009,0,0,1-2.009-2.009,2.012,2.012,0,0,1,1.777-2,2,2,0,0,1,2.012-1,2,2,0,0,1,1.677,1.5,1.758,1.758,0,0,1,1.56,1.589,1.757,1.757,0,0,1-1.249,1.845.475.475,0,0,1-.251.073Zm-1.014-2a1.007,1.007,0,0,0,1.014,1h3.361l.057-.017a.752.752,0,0,0,.6-.738.763.763,0,0,0-.283-.578.771.771,0,0,0-.624-.161.5.5,0,0,1-.425-.107.506.506,0,0,1-.179-.4.171.171,0,0,0,0-.033,1,1,0,0,0-.844-.972,1,1,0,0,0-1.1.666.505.505,0,0,1-.509.337l-.075-.009A1,1,0,0,0,7257.186-4576.826Zm-7.027,1.5a.5.5,0,0,1-.5-.5v-3.015a.5.5,0,0,1,.5-.5h3.015a.5.5,0,0,1,.5.5v3.015a.5.5,0,0,1-.5.5Zm.5-1h2.011v-2.01h-2.011Zm-5.527,1a.5.5,0,0,1-.5-.5v-3.015a.5.5,0,0,1,.5-.5h3.015a.5.5,0,0,1,.5.5v3.015a.5.5,0,0,1-.5.5Zm.5-1h2.011v-2.01h-2.011Z" transform="translate(-7232.577 4586.368)" fill="#fff"/>
      <path id="Path_137" data-name="Path 137" d="M61,59h-.5a.5.5,0,0,0,0,1H61a.5.5,0,1,0,0-1Z" transform="translate(-29.353 -27.86)" fill="#fff"/>
    </g>
  </g>
</svg>
