<?xml version="1.0" encoding="utf-8"?>
<!-- Generator: Adobe Illustrator 28.3.0, SVG Export Plug-In . SVG Version: 6.00 Build 0)  -->
<svg version="1.1" id="Warstwa_1" xmlns="http://www.w3.org/2000/svg" xmlns:xlink="http://www.w3.org/1999/xlink" x="0px" y="0px"
	 width="479.4px" height="133.3px" viewBox="0 0 479.4 133.3" style="enable-background:new 0 0 479.4 133.3;" xml:space="preserve"
	>
<style type="text/css">
	.st0{fill:url(#SVGID_1_);}
	.st1{fill:url(#SVGID_00000153691464218521278720000015625811506190574212_);}
	.st2{fill:url(#SVGID_00000076581046330728814250000010427356045812555932_);}
	.st3{fill:url(#SVGID_00000116217320233169661220000013507674193713530264_);}
	.st4{fill:url(#SVGID_00000124130856461644706530000012868546763637654676_);}
	.st5{fill:url(#SVGID_00000004536599342884024310000006131086759064087697_);}
	.st6{fill:url(#SVGID_00000034052282022139096680000016856337686858534329_);}
	.st7{fill:url(#SVGID_00000011013071185560506420000003252797983181550007_);}
	.st8{fill:url(#SVGID_00000164490810427014674220000009338485472840979887_);}
	.st9{fill:url(#SVGID_00000072267063408311672540000016635415967551218616_);}
	.st10{fill:url(#SVGID_00000075139257494991803850000011326510857085871517_);}
	.st11{fill:url(#SVGID_00000098213864550196508410000008378324748473248163_);}
	.st12{fill:url(#SVGID_00000018941085242055464420000013362526826243605679_);}
</style>
<g>
	<g>
		<linearGradient id="SVGID_1_" gradientUnits="userSpaceOnUse" x1="50.6965" y1="85.3123" x2="133.0582" y2="-18.5481">
			<stop  offset="0" style="stop-color:#CFBA9F"/>
			<stop  offset="0.4888" style="stop-color:#AE8C61"/>
			<stop  offset="1" style="stop-color:#937144"/>
		</linearGradient>
		<polygon class="st0" points="73,85.4 80.2,85.4 80.2,13.3 73,20 		"/>
		
			<linearGradient id="SVGID_00000155829298292683294650000007094326304074444477_" gradientUnits="userSpaceOnUse" x1="63.6964" y1="95.6213" x2="146.0581" y2="-8.2391">
			<stop  offset="0" style="stop-color:#CFBA9F"/>
			<stop  offset="0.4888" style="stop-color:#AE8C61"/>
			<stop  offset="1" style="stop-color:#937144"/>
		</linearGradient>
		<path style="fill:url(#SVGID_00000155829298292683294650000007094326304074444477_);" d="M119.6,85.4c0-1,0-2,0-2.9
			c0-18.5,0-37.1,0-55.6c-2.5-1.7-4.9-3.5-7.4-5.2l-0.2-0.1c0-1.9,0-3.7,0-5.6C106,10.5,99.9,5.3,93.8,0l0,0
			c-2.8,2.6-5.6,5.3-8.4,7.9v63.8v1.6v12h8.4V71.7h0l0-55.8c2.3,1.6,4.5,3.3,6.8,4.9c0,4.5-0.1,9-0.1,13.6c0,4,0,7.9,0,11.8v39.1
			h5.3v0C110.5,85.3,115.1,85.3,119.6,85.4z"/>
	</g>
	<path d="M41.4,85.4V56.1H10.4v29.2H0V19.7h10.4v27.1h30.9V19.7h10.4v65.7H41.4z"/>
	<path d="M169.3,28.9v56.5h-10.4V28.9h-23.4v-9.2h57.2v9.2H169.3z"/>
	<path d="M232.4,17.9c4.7,0,9.2,0.8,13.3,2.3c4.1,1.6,7.6,3.8,10.6,6.7c3,2.9,5.3,6.5,7,10.6c1.7,4.2,2.5,8.8,2.5,14
		c0,5.2-0.8,9.9-2.5,14c-1.7,4.2-4,7.7-7,10.6c-3,2.9-6.5,5.2-10.6,6.7c-4.1,1.6-8.5,2.3-13.3,2.3c-4.8,0-9.2-0.8-13.3-2.3
		c-4.1-1.6-7.6-3.8-10.6-6.7c-3-2.9-5.3-6.5-7-10.6c-1.7-4.2-2.5-8.8-2.5-14c0-5.2,0.8-9.9,2.5-14c1.7-4.2,4-7.7,7-10.6
		c3-2.9,6.5-5.2,10.6-6.7C223.2,18.7,227.6,17.9,232.4,17.9z M232.4,27.2c-3.3,0-6.3,0.6-9.1,1.7c-2.8,1.1-5.2,2.7-7.3,4.8
		c-2.1,2.1-3.6,4.6-4.8,7.6c-1.1,3-1.7,6.5-1.7,10.3c0,3.8,0.6,7.2,1.7,10.2c1.1,3,2.7,5.6,4.8,7.7c2,2.1,4.5,3.7,7.3,4.8
		c2.8,1.1,5.9,1.7,9.1,1.7c3.3,0,6.3-0.6,9.1-1.7c2.8-1.1,5.2-2.7,7.2-4.8c2-2.1,3.6-4.7,4.8-7.7c1.1-3,1.7-6.4,1.7-10.2
		c0-3.9-0.6-7.3-1.7-10.3c-1.1-3-2.7-5.6-4.8-7.6c-2.1-2.1-4.5-3.7-7.2-4.8C238.7,27.8,235.7,27.2,232.4,27.2z"/>
	<path d="M335.9,85.4l-16.1-46.4l-16,46.4H295l-22.9-65.7h11.2l16.2,47.1l16-47.1h8.6l16.1,47.1l16.2-47.1h11.2l-22.9,65.7H335.9z"
		/>
	<path d="M386.9,28.9V47h27v9h-27v20h30.8v9.3h-41.3V19.7h41.3v9.2H386.9z"/>
	<path d="M453.8,60.2h-14.5v25.1h-10.4V19.7h26.5c3,0,5.7,0.4,8.3,1.3c2.5,0.9,4.7,2.2,6.5,3.9c1.8,1.7,3.3,3.8,4.3,6.3
		c1,2.5,1.5,5.4,1.5,8.8c0,4.7-1,8.7-3.1,11.8c-2,3.1-4.8,5.4-8.3,6.8l14.8,26.9h-11.8L453.8,60.2z M454,50.9c1.6,0,3-0.2,4.4-0.7
		c1.3-0.4,2.5-1.1,3.6-2.1c1-0.9,1.8-2.1,2.4-3.4c0.6-1.3,0.9-3,0.9-4.8s-0.3-3.5-0.9-4.9c-0.6-1.4-1.4-2.5-2.4-3.5
		c-1-0.9-2.2-1.6-3.6-2.1c-1.3-0.4-2.8-0.7-4.4-0.7h-14.8v22H454z"/>
	<g>
		
			<linearGradient id="SVGID_00000085231865025613350820000017113742623540473492_" gradientUnits="userSpaceOnUse" x1="132.8439" y1="127.7572" x2="330.4792" y2="85.4955">
			<stop  offset="0" style="stop-color:#CFBA9F"/>
			<stop  offset="0.4888" style="stop-color:#AE8C61"/>
			<stop  offset="1" style="stop-color:#937144"/>
		</linearGradient>
		<path style="fill:url(#SVGID_00000085231865025613350820000017113742623540473492_);" d="M145.8,133.3l-1.5-3.6h-7.1l-1.5,3.6
			h-2.8l6.7-15.9h2.2l6.8,15.9H145.8z M143.3,127.5l-2.6-6.2l-2.6,6.2H143.3z"/>
		
			<linearGradient id="SVGID_00000176724325917835719220000005030964695732017848_" gradientUnits="userSpaceOnUse" x1="133.3708" y1="130.2211" x2="331.0061" y2="87.9595">
			<stop  offset="0" style="stop-color:#CFBA9F"/>
			<stop  offset="0.4888" style="stop-color:#AE8C61"/>
			<stop  offset="1" style="stop-color:#937144"/>
		</linearGradient>
		<path style="fill:url(#SVGID_00000176724325917835719220000005030964695732017848_);" d="M161.4,117.4c0.7,0,1.4,0.1,2,0.3
			c0.6,0.2,1.1,0.5,1.6,0.9c0.4,0.4,0.8,0.9,1,1.6c0.2,0.6,0.4,1.3,0.4,2.1c0,0.8-0.1,1.5-0.4,2.1c-0.2,0.6-0.6,1.1-1,1.6
			s-1,0.7-1.6,0.9c-0.6,0.2-1.3,0.3-2,0.3h-4v6h-2.5v-15.9H161.4z M157.4,125h3.7c0.4,0,0.7-0.1,1.1-0.2s0.6-0.3,0.9-0.5
			c0.2-0.2,0.4-0.5,0.6-0.8c0.1-0.3,0.2-0.7,0.2-1.2s-0.1-0.9-0.2-1.2c-0.1-0.3-0.3-0.6-0.6-0.9c-0.2-0.2-0.5-0.4-0.9-0.5
			c-0.3-0.1-0.7-0.2-1.1-0.2h-3.7V125z"/>
		
			<linearGradient id="SVGID_00000162339731501853095240000002235627853821687738_" gradientUnits="userSpaceOnUse" x1="134.5358" y1="135.6694" x2="332.1712" y2="93.4078">
			<stop  offset="0" style="stop-color:#CFBA9F"/>
			<stop  offset="0.4888" style="stop-color:#AE8C61"/>
			<stop  offset="1" style="stop-color:#937144"/>
		</linearGradient>
		<path style="fill:url(#SVGID_00000162339731501853095240000002235627853821687738_);" d="M184.5,133.3l-1.5-3.6h-7.1l-1.5,3.6
			h-2.8l6.7-15.9h2.2l6.8,15.9H184.5z M182,127.5l-2.6-6.2l-2.6,6.2H182z"/>
		
			<linearGradient id="SVGID_00000001663162708826287600000012741653250016881040_" gradientUnits="userSpaceOnUse" x1="135.2756" y1="139.1289" x2="332.9109" y2="96.8673">
			<stop  offset="0" style="stop-color:#CFBA9F"/>
			<stop  offset="0.4888" style="stop-color:#AE8C61"/>
			<stop  offset="1" style="stop-color:#937144"/>
		</linearGradient>
		<path style="fill:url(#SVGID_00000001663162708826287600000012741653250016881040_);" d="M199.6,127.2h-3.5v6.1h-2.5v-15.9h6.4
			c0.7,0,1.4,0.1,2,0.3c0.6,0.2,1.1,0.5,1.6,0.9c0.4,0.4,0.8,0.9,1,1.5c0.2,0.6,0.4,1.3,0.4,2.1c0,1.1-0.2,2.1-0.7,2.9
			c-0.5,0.8-1.2,1.3-2,1.6l3.6,6.5H203L199.6,127.2z M199.7,125c0.4,0,0.7-0.1,1.1-0.2c0.3-0.1,0.6-0.3,0.9-0.5
			c0.2-0.2,0.4-0.5,0.6-0.8c0.1-0.3,0.2-0.7,0.2-1.2s-0.1-0.8-0.2-1.2c-0.1-0.3-0.3-0.6-0.6-0.8c-0.2-0.2-0.5-0.4-0.9-0.5
			c-0.3-0.1-0.7-0.2-1.1-0.2h-3.6v5.3H199.7z"/>
		
			<linearGradient id="SVGID_00000051373282939664299060000005622836751407852433_" gradientUnits="userSpaceOnUse" x1="135.959" y1="142.3248" x2="333.5943" y2="100.0631">
			<stop  offset="0" style="stop-color:#CFBA9F"/>
			<stop  offset="0.4888" style="stop-color:#AE8C61"/>
			<stop  offset="1" style="stop-color:#937144"/>
		</linearGradient>
		<path style="fill:url(#SVGID_00000051373282939664299060000005622836751407852433_);" d="M219.5,119.6v13.7h-2.5v-13.7h-5.7v-2.2
			h13.9v2.2H219.5z"/>
		
			<linearGradient id="SVGID_00000179639354125973398490000009008116072922497415_" gradientUnits="userSpaceOnUse" x1="137.0896" y1="147.612" x2="334.7249" y2="105.3503">
			<stop  offset="0" style="stop-color:#CFBA9F"/>
			<stop  offset="0.4888" style="stop-color:#AE8C61"/>
			<stop  offset="1" style="stop-color:#937144"/>
		</linearGradient>
		<path style="fill:url(#SVGID_00000179639354125973398490000009008116072922497415_);" d="M242.9,133.3l-1.5-3.6h-7.1l-1.5,3.6H230
			l6.7-15.9h2.2l6.8,15.9H242.9z M240.4,127.5l-2.6-6.2l-2.6,6.2H240.4z"/>
		
			<linearGradient id="SVGID_00000029757194856159066040000016865069205275333012_" gradientUnits="userSpaceOnUse" x1="137.9383" y1="151.581" x2="335.5676" y2="109.3206">
			<stop  offset="0" style="stop-color:#CFBA9F"/>
			<stop  offset="0.4888" style="stop-color:#AE8C61"/>
			<stop  offset="1" style="stop-color:#937144"/>
		</linearGradient>
		<path style="fill:url(#SVGID_00000029757194856159066040000016865069205275333012_);" d="M266.7,133.3v-10.2l-5.3,10.1h-1.7
			l-5.3-10.1v10.2H252v-15.9h2.2l6.4,12.1l6.4-12.1h2.2v15.9H266.7z"/>
		
			<linearGradient id="SVGID_00000105413571350812637960000009463453175885045385_" gradientUnits="userSpaceOnUse" x1="138.8775" y1="155.9729" x2="336.5128" y2="113.7113">
			<stop  offset="0" style="stop-color:#CFBA9F"/>
			<stop  offset="0.4888" style="stop-color:#AE8C61"/>
			<stop  offset="1" style="stop-color:#937144"/>
		</linearGradient>
		<path style="fill:url(#SVGID_00000105413571350812637960000009463453175885045385_);" d="M279.6,119.6v4.4h6.5v2.2h-6.5v4.9h7.5
			v2.3h-10v-15.9h10v2.2H279.6z"/>
		
			<linearGradient id="SVGID_00000091728745434787770270000010771817179666545314_" gradientUnits="userSpaceOnUse" x1="139.6754" y1="159.7045" x2="337.3108" y2="117.4429">
			<stop  offset="0" style="stop-color:#CFBA9F"/>
			<stop  offset="0.4888" style="stop-color:#AE8C61"/>
			<stop  offset="1" style="stop-color:#937144"/>
		</linearGradient>
		<path style="fill:url(#SVGID_00000091728745434787770270000010771817179666545314_);" d="M304.5,133.3l-7.9-11.2v11.2h-2.5v-15.9
			h2.1l7.9,11.3v-11.3h2.5v15.9H304.5z"/>
		
			<linearGradient id="SVGID_00000113319473082708674140000011724655457829083578_" gradientUnits="userSpaceOnUse" x1="140.4096" y1="163.138" x2="338.045" y2="120.8763">
			<stop  offset="0" style="stop-color:#CFBA9F"/>
			<stop  offset="0.4888" style="stop-color:#AE8C61"/>
			<stop  offset="1" style="stop-color:#937144"/>
		</linearGradient>
		<path style="fill:url(#SVGID_00000113319473082708674140000011724655457829083578_);" d="M321.2,119.6v13.7h-2.5v-13.7H313v-2.2
			h13.9v2.2H321.2z"/>
		
			<linearGradient id="SVGID_00000042737896117678825040000016535327040983559092_" gradientUnits="userSpaceOnUse" x1="141.2411" y1="167.0266" x2="338.8765" y2="124.7649">
			<stop  offset="0" style="stop-color:#CFBA9F"/>
			<stop  offset="0.4888" style="stop-color:#AE8C61"/>
			<stop  offset="1" style="stop-color:#937144"/>
		</linearGradient>
		<path style="fill:url(#SVGID_00000042737896117678825040000016535327040983559092_);" d="M340.4,133.3h-2.5v-6.4l-6.1-9.5h2.9
			l4.4,7l4.3-7h2.9l-6,9.5V133.3z"/>
	</g>
</g>
</svg>
