<svg xmlns="http://www.w3.org/2000/svg" xmlns:xlink="http://www.w3.org/1999/xlink" width="64" height="64" viewBox="0 0 64 64">
  <defs>
    <clipPath id="clip-path">
      <rect id="Rectangle_371" data-name="Rectangle 371" width="34" height="34" transform="translate(0 0.479)" fill="#fff"/>
    </clipPath>
  </defs>
  <g id="Group_461" data-name="Group 461" transform="translate(-273 -5185.849)">
    <g id="Group_433" data-name="Group 433">
      <circle id="Ellipse_53" data-name="Ellipse 53" cx="32" cy="32" r="32" transform="translate(273 5185.849)" fill="#ff6f00"/>
      <g id="Group_419" data-name="Group 419" transform="translate(288 5201.369)">
        <g id="Group_418" data-name="Group 418" clip-path="url(#clip-path)">
          <path id="Path_175" data-name="Path 175" d="M109.275,40.047a3.313,3.313,0,0,0,.7.078,2.352,2.352,0,0,0,2.256-1.53.506.506,0,1,0-.958-.326,1.408,1.408,0,0,1-1.782.789.506.506,0,1,0-.212.99Z" transform="translate(-101.53 -35.367)" fill="#fff"/>
          <path id="Path_176" data-name="Path 176" d="M142.939,111.824a.506.506,0,1,0-.212.99,3.317,3.317,0,0,0,.7.078,2.353,2.353,0,0,0,2.258-1.53.506.506,0,1,0-.958-.326,1.41,1.41,0,0,1-1.784.789" transform="translate(-132.724 -103.223)" fill="#fff"/>
          <path id="Path_177" data-name="Path 177" d="M31.635,100.34a3.324,3.324,0,0,0,.695.077,2.354,2.354,0,0,0,2.26-1.529.506.506,0,1,0-.958-.326,1.411,1.411,0,0,1-1.785.789.506.506,0,1,0-.211.99" transform="translate(-29.127 -91.592)" fill="#fff"/>
          <path id="Path_178" data-name="Path 178" d="M214.091,17.51a.506.506,0,0,0,.694-.174,6.86,6.86,0,0,0,.95-3.274v-.017a4.746,4.746,0,0,0,2.806-1.317,4.291,4.291,0,0,0,1.2-2.607,4.166,4.166,0,0,0-2.624-4.406,3.9,3.9,0,0,0,.13-5.56.506.506,0,0,0-.728.7c1.826,1.889.122,3.882-.183,4.21a.926.926,0,0,0-.368.837.838.838,0,0,0,.526.67l.047.016a3.165,3.165,0,0,1,2.192,3.434,3.379,3.379,0,0,1-3.363,3.042.675.675,0,0,0-.644.783c0,.048,0,.106,0,.175a5.847,5.847,0,0,1-.806,2.791A.506.506,0,0,0,214.091,17.51Z" transform="translate(-199.417 0)" fill="#fff"/>
          <path id="Path_179" data-name="Path 179" d="M34.038,166.389h-.715s1-2.7,1.017-2.739a1.347,1.347,0,0,0,.1-1.064.918.918,0,0,0-.551-.477l-4.247-1.472c-.01-.043-.663-3.424-.663-3.424l.513-2.587.8.259v1.485a1.509,1.509,0,0,0,1.495,1.512h.005a1.532,1.532,0,0,0,1.073-.446,1.486,1.486,0,0,0,.443-1.058v-2.614c0-.006,0-.013,0-.019a1.512,1.512,0,0,0-1.018-1.366l-.268-.092c-.418-.144-2.674-.9-3.052-1.008l-.655-.943a3.7,3.7,0,0,0,1.229-1.6c0-.01.007-.02.011-.029l0-.01,0-.007v0a5.5,5.5,0,0,0,.175-3.356,3.261,3.261,0,0,0-2.116-2.119,4.208,4.208,0,0,0-1.5-.17,5.029,5.029,0,0,1-2.592-.519.506.506,0,0,0-.678.225,2.761,2.761,0,0,0,.03,2.933,3.659,3.659,0,0,0-.379,1.626,3.715,3.715,0,0,0,1.523,2.906l-1.1,1.372H21.134l-.875-1.273a1.6,1.6,0,0,0-1.473-.734,1.65,1.65,0,0,0-1.344.921,1.515,1.515,0,0,0,.177,1.543l1.434,2.031a1.207,1.207,0,0,0,1.288.656h2.321v2.3l-1.552,1.8a2.409,2.409,0,0,0-.678,1.612v3.684a3.036,3.036,0,0,0-1.32.8,2.619,2.619,0,0,0-.717,1.457H14.145A3.189,3.189,0,0,0,13.8,161.7a3.213,3.213,0,0,0-3.177-2.867,3.173,3.173,0,0,0-1.571.411v-6.066H10.1a6.053,6.053,0,0,0,3.685-1.214.506.506,0,0,0-.61-.807,5.048,5.048,0,0,1-3.074,1.009H9.049v-3.085l1.27-1.272A1.914,1.914,0,0,0,7.613,145.1l-.568.567-.568-.567a1.9,1.9,0,0,0-1.355-.56h0a1.914,1.914,0,0,0-1.352,3.266l1.271,1.273v3.085H.506a.506.506,0,0,0,0,1.012H5.039v5.3a.506.506,0,1,0,1.012,0v-9.6a.506.506,0,0,0-.148-.358l-1.42-1.422a.9.9,0,0,1,.638-1.538h0a.9.9,0,0,1,.64.264l.926.924a.506.506,0,0,0,.715,0l.927-.925A.9.9,0,0,1,9.6,147.094l-1.419,1.421a.506.506,0,0,0-.148.358v17.516H6.052v-5.576a.506.506,0,1,0-1.012,0v5.576H1.288a.506.506,0,1,0,0,1.012h32.75a.506.506,0,1,0,0-1.012Zm-22.224,0H9.048v-5.875a2.164,2.164,0,0,1,1.571-.667A2.193,2.193,0,0,1,12.8,161.98a.506.506,0,0,0,.225.41,2.182,2.182,0,0,1-1.211,4m12.168-4.528c.064-.041,1.135-.64,1.135-.64l.688,1.424a1.507,1.507,0,0,0,.961.848l3.82,1.315a3.769,3.769,0,0,0,.2,1.581H23.992S23.983,161.9,23.983,161.861Zm7.479.45-.587,1.525-3.779-1.3a.522.522,0,0,1-.378-.33L26,160.729a6.753,6.753,0,0,0,2.276-1.8l.338,1.749a1.008,1.008,0,0,0,.75.939ZM28.05,156.7l-4.376.006v-4.443l1.239-1.549a3.345,3.345,0,0,0,1.252.256,4.058,4.058,0,0,0,1.234-.182l.367.528a1.5,1.5,0,0,0-.794.878,1.521,1.521,0,0,0,.079,1.164,1.474,1.474,0,0,0,.866.751h0l.608.2Zm3.641-3.462.27.093a.5.5,0,0,1,.334.439v2.6a.481.481,0,0,1-.145.342.513.513,0,0,1-.359.151h0a.5.5,0,0,1-.486-.5v-1.675c0-.01,0-.02,0-.028a.6.6,0,0,0-.4-.646l-.013,0-2.662-.866a.47.47,0,0,1-.274-.24.5.5,0,0,1,.57-.7C28.88,152.3,31.274,153.1,31.691,153.243Zm-8.124-9.594a6.166,6.166,0,0,0,2.56.4,3.37,3.37,0,0,1,1.157.112c2,.705,1.72,2.8,1.4,3.923a2.449,2.449,0,0,1-1.66-.283,1.012,1.012,0,0,1-.334-.843c0-1.291-1.256-1.436-2.006-1.523a2.307,2.307,0,0,1-.842-.186h0a1.484,1.484,0,0,1-.276-1.6m-.055,3.658a2.655,2.655,0,0,1,.2-1.012,4.97,4.97,0,0,0,.857.15c.958.111,1.111.221,1.111.518a1.991,1.991,0,0,0,.712,1.632,2.854,2.854,0,0,0,1.744.534,2.231,2.231,0,0,1-.761.589,2.857,2.857,0,0,1-1.21.244,2.371,2.371,0,0,1-.98-.228A2.784,2.784,0,0,1,23.511,147.306Zm-3.17,6.41c-.111,0-.235,0-.289-.007-.044-.045-.134-.169-.176-.226l-1.43-2.025a.512.512,0,0,1-.087-.532.64.64,0,0,1,.511-.341.6.6,0,0,1,.555.3l.983,1.43a.587.587,0,0,0,.537.281h1.716v1.12H20.341Zm1.1,6.729a1.407,1.407,0,0,1,.431-.95h0l1.524-1.771,4.406,0a4.936,4.936,0,0,1-2.412,2.191c-.114.062-1.717.958-1.717.958-.614.345-.736.514-.718,1.125,0,0,.006.176.006.275l.007,1.783h-1.53v-3.6Zm-2.02,5.943a1.614,1.614,0,0,1,.418-.756,1.871,1.871,0,0,1,1.1-.571h2.039l0,1.327Zm12.608,0c-.035,0-.1,0-.189-.131a2.46,2.46,0,0,1-.218-1.553l.792-2.059,1.069.393c-.023.075-1.242,3.351-1.242,3.351h-.212Z" transform="translate(0 -132.856)" fill="#fff"/>
        </g>
      </g>
    </g>
  </g>
</svg>
