<svg xmlns="http://www.w3.org/2000/svg" width="322" height="395.008" viewBox="0 0 322 395.008">
  <path id="Union_17" data-name="Union 17" d="M8269.441,10.345v-44.3h-12.1v31.78L8240.6-17.711V-33.955H8144a9.5,9.5,0,0,1-9.5-9.5v-252a9.5,9.5,0,0,1,9.5-9.5h96.6v-13.67l16.745-15.536v29.206h12.1v-41.726c6.51-6.029,13.024-12.289,19.537-18.318,14.187,12.289,28.374,24.346,42.331,37.1v12.985l.465.231c4.681,3.174,9.212,6.5,13.834,9.73H8446a9.5,9.5,0,0,1,9.5,9.5v252a9.5,9.5,0,0,1-9.5,9.5h-97.014v.246c-5.814,3.941-11.4,8.115-17.212,12.057l-.467.231V-8.435c-13.955,12.751-28.143,24.809-42.331,37.1C8282.464,22.636,8275.951,16.374,8269.441,10.345ZM8288.977-8.2c5.35-3.709,10.466-7.652,15.815-11.361,0-4.789-.049-9.578-.1-14.39h-15.714Zm15.743-296.752c.042-3.947.075-7.881.075-11.816-5.351-3.709-10.469-7.652-15.816-11.361v23.177Z" transform="translate(-8134 365.672)" fill="#fff" stroke="#937144" stroke-width="1"/>
</svg>
