<svg xmlns="http://www.w3.org/2000/svg" xmlns:xlink="http://www.w3.org/1999/xlink" width="321" height="393.662" viewBox="0 0 321 393.662">
  <defs>
    <linearGradient id="linear-gradient" x1="0.02" y1="0.837" x2="1" y2="0.164" gradientUnits="objectBoundingBox">
      <stop offset="0" stop-color="#cfba9f"/>
      <stop offset="0.575" stop-color="#ae8c61"/>
      <stop offset="1" stop-color="#937144"/>
    </linearGradient>
  </defs>
  <path id="Union_15" data-name="Union 15" d="M8269.441,10.345v-44.3h-12.094v31.78L8240.6-17.711V-33.955H8144a9.5,9.5,0,0,1-9.5-9.5v-252a9.5,9.5,0,0,1,9.5-9.5h96.6v-13.67l16.747-15.536v29.206h12.094v-41.726c6.513-6.029,13.024-12.289,19.537-18.318,14.188,12.289,28.376,24.346,42.331,37.1v12.985l.467.231c4.679,3.174,9.21,6.5,13.832,9.73H8446a9.5,9.5,0,0,1,9.5,9.5v252a9.5,9.5,0,0,1-9.5,9.5h-97.014v.246c-5.814,3.941-11.4,8.115-17.212,12.057l-.465.231V-8.435c-13.957,12.751-28.143,24.809-42.333,37.1C8282.466,22.636,8275.954,16.374,8269.441,10.345ZM8288.977-8.2c5.352-3.709,10.468-7.652,15.818-11.361,0-4.789-.049-9.578-.1-14.39h-15.717Zm15.744-296.752c.041-3.947.074-7.881.074-11.816-5.348-3.709-10.467-7.652-15.816-11.361v23.177Z" transform="translate(-8134.5 364.999)" fill="url(#linear-gradient)"/>
</svg>
