<svg xmlns="http://www.w3.org/2000/svg" width="64" height="64" viewBox="0 0 64 64">
  <g id="Group_464" data-name="Group 464" transform="translate(-624 -4937.801)">
    <path id="Path_366" data-name="Path 366" d="M32,0A32,32,0,1,1,0,32,32,32,0,0,1,32,0Z" transform="translate(624 4937.801)" fill="#f308ad"/>
    <g id="popcorn_1_" data-name="popcorn (1)" transform="translate(618.536 4950.57)">
      <g id="Group_435" data-name="Group 435" transform="translate(21.504 7.815)">
        <g id="Group_434" data-name="Group 434" transform="translate(0)">
          <path id="Path_190" data-name="Path 190" d="M27.589,111.219a2.049,2.049,0,0,0-3.375-1.56,2.048,2.048,0,0,0-1.352,3.866,2.048,2.048,0,0,0,4.012-.751A2.052,2.052,0,0,0,27.589,111.219Zm-1.572.85-.377.212.127.414a.974.974,0,1,1-1.9.358l-.031-.43-.426-.063a.974.974,0,1,1,.65-1.8l.414.253.293-.386a.974.974,0,1,1,1.252,1.438Z" transform="translate(-21.504 -109.171)" fill="#fff"/>
        </g>
      </g>
      <g id="Group_437" data-name="Group 437" transform="translate(27.367 1.109)">
        <g id="Group_436" data-name="Group 436" transform="translate(0)">
          <path id="Path_191" data-name="Path 191" d="M109.355,17.384a1.886,1.886,0,0,0-3.082-1.457,1.885,1.885,0,0,0-2.453,1.986,1.884,1.884,0,0,0,2.394,2.821,1.885,1.885,0,0,0,2.511-1.778q0-.081-.007-.161A1.888,1.888,0,0,0,109.355,17.384Zm-1.488.707-.377.212.127.414a.811.811,0,0,1-1.184.94l-.328-.192-.29.246a.8.8,0,0,1-.523.192.811.811,0,0,1-.538-1.418l.251-.222-.09-.323a.811.811,0,0,1,1.2-.911l.414.252.293-.386a.811.811,0,1,1,1.043,1.2Z" transform="translate(-103.406 -15.499)" fill="#fff"/>
        </g>
      </g>
      <g id="Group_439" data-name="Group 439" transform="translate(49.13 5.083)">
        <g id="Group_438" data-name="Group 438">
          <path id="Path_192" data-name="Path 192" d="M413.351,72.889a2.78,2.78,0,0,0-5.535.529,2.508,2.508,0,0,0,4.906,1.044c0-.054,0-.108-.007-.161A1.888,1.888,0,0,0,413.351,72.889Zm-1.489.708-.378.212.128.414a.811.811,0,0,1-1.184.939l-.328-.192-.29.246a.8.8,0,0,1-.523.192.811.811,0,0,1-.538-1.418l.251-.222-.09-.323a.811.811,0,0,1,1.2-.911l.414.253.293-.386a.811.811,0,1,1,1.043,1.2Z" transform="translate(-407.402 -71.004)" fill="#fff"/>
        </g>
      </g>
      <g id="Group_441" data-name="Group 441" transform="translate(43.77 0)">
        <g id="Group_440" data-name="Group 440" transform="translate(0 0)">
          <path id="Path_193" data-name="Path 193" d="M338.126,2.331a2.03,2.03,0,0,0-1.149-.824,2.048,2.048,0,0,0-3.958,1.054,2.057,2.057,0,0,0-.135,2.479,2.034,2.034,0,0,0,1.31.861,2.069,2.069,0,0,0,.388.037,2.054,2.054,0,0,0,1.313-.48,2.052,2.052,0,0,0,1.688-.282h0A2.05,2.05,0,0,0,338.126,2.331Zm-.737,1.333a.968.968,0,0,1-.409.623h0a.976.976,0,0,1-.983.066l-.388-.193-.271.338a.978.978,0,0,1-.213.2.974.974,0,0,1-1.152-1.569l.338-.267-.188-.388a.979.979,0,0,1,.33-1.228A.967.967,0,0,1,335,1.074a.986.986,0,0,1,.185.018.974.974,0,0,1,.79.908l.024.484.484.026a.974.974,0,0,1,.906,1.155Z" transform="translate(-332.532 0)" fill="#fff"/>
        </g>
      </g>
      <g id="Group_443" data-name="Group 443" transform="translate(26.529 4.654)">
        <g id="Group_442" data-name="Group 442" transform="translate(0)">
          <path id="Path_194" data-name="Path 194" d="M114.657,75.437a1.891,1.891,0,0,0-.193-.83,1.887,1.887,0,0,0-1.32-2.681,1.884,1.884,0,0,0-2.543-2.443,2.473,2.473,0,0,0-2.2-.636,1.879,1.879,0,0,0-.5-.355,2.048,2.048,0,0,0-2.783-3,2.052,2.052,0,0,0-1.776.219,2.048,2.048,0,0,0-3.411,1.9,1.89,1.89,0,0,0-1.526,1.622,2.227,2.227,0,0,0-1.929.351,1.885,1.885,0,0,0-2.46,1.984,1.89,1.89,0,0,0-.2,2.048,2.047,2.047,0,0,0-1.406,3.411,3.239,3.239,0,0,0-.714,2.3l2.921,17.675h16.8l2.915-17.631.005-.044a3.238,3.238,0,0,0-.385-1.81,2.068,2.068,0,0,0,.066-.511q0-.081-.007-.161A1.887,1.887,0,0,0,114.657,75.437ZM95.533,95.931h0L92.77,79.222a2.156,2.156,0,0,1,2.15-2.31h.022A2.149,2.149,0,0,1,97.1,78.985V79l.005.065q0,.066,0,.132l1.329,16.739Zm3.978,0L98.176,79.024a2.156,2.156,0,0,1,2.155-2.111,2.158,2.158,0,0,1,2.156,2.156V95.931Zm4.05,0h0V79.068a2.156,2.156,0,0,1,3.709-1.495,2.135,2.135,0,0,1,.6,1.45l-1.335,16.908Zm9.717-16.709-2.763,16.709h-2.9l1.328-16.717v-.022q0-.066,0-.132l0-.054v-.022a2.149,2.149,0,0,1,2.154-2.073h.022a2.156,2.156,0,0,1,2.15,2.31Zm-.11-3.078-.33.186a3.237,3.237,0,0,0-1.711-.491h-.022a3.219,3.219,0,0,0-2.7,1.445,3.279,3.279,0,0,0-.366-.455,3.228,3.228,0,0,0-5.02.458A3.228,3.228,0,0,0,98,76.829a3.276,3.276,0,0,0-.366.455,3.22,3.22,0,0,0-2.7-1.445H94.92a3.237,3.237,0,0,0-1.7.483.974.974,0,0,1,1.224-1.491l.413.252.293-.385a.984.984,0,0,1,.233-.22l.916-.62-1.055-.336a.811.811,0,0,1-.29-1.379l.251-.223-.09-.323a.811.811,0,0,1,1.2-.911l.414.253.293-.386a.955.955,0,0,1,.692-.323,1.437,1.437,0,0,1,1.032.411,1.649,1.649,0,0,0,.18.134l.418.253.288-.388.263-.346-.256-.326a.8.8,0,0,1-.173-.5.812.812,0,0,1,.8-.811l.3.017.173-.225a.967.967,0,0,1,.166-.169l.338-.267-.187-.388a.974.974,0,0,1,1.683-.971.917.917,0,0,1,.053.09l.383.734.514-.649a.974.974,0,0,1,1.271-.23l.413.252.293-.385a.974.974,0,1,1,1.253,1.437l-.377.211.126.413a1,1,0,0,1,.043.278c0,.014,0,.029,0,.044v.47l.466.062a.809.809,0,0,1,.575.368l.235.367.408-.154a1.4,1.4,0,0,1,1.651.53l.348.519.461-.422a.811.811,0,1,1,.945,1.3l-.379.214.131.415a.736.736,0,0,1,.028.135l.092.8.7-.39a.811.811,0,0,1,1.03,1.21l-.26.332.261.331a.8.8,0,0,1,.172.5A.814.814,0,0,1,113.168,76.145Z" transform="translate(-91.69 -65.005)" fill="#fff"/>
        </g>
      </g>
      <g id="Group_445" data-name="Group 445" transform="translate(33.889 9.629)">
        <g id="Group_444" data-name="Group 444">
          <path id="Path_195" data-name="Path 195" d="M200.3,135.076a1.569,1.569,0,0,0-.463.069,2,2,0,0,0-3.429.935,2.007,2.007,0,0,0-1.907,2h1.074a.928.928,0,0,1,1.187-.894l.771.22-.089-.8a.943.943,0,0,1-.007-.105.93.93,0,0,1,1.755-.43l.3.567.507-.391a.5.5,0,0,1,.3-.1.5.5,0,0,1,.5.5h1.074A1.577,1.577,0,0,0,200.3,135.076Z" transform="translate(-194.501 -134.503)" fill="#fff"/>
        </g>
      </g>
      <g id="Group_447" data-name="Group 447" transform="translate(39.473 12.17)">
        <g id="Group_446" data-name="Group 446" transform="translate(0)">
          <path id="Path_196" data-name="Path 196" d="M276.3,170a1.868,1.868,0,0,0-1.368.6,1.826,1.826,0,0,0-2.426,1.724h1.074a.752.752,0,0,1,.752-.752.743.743,0,0,1,.45.151l.527.4.281-.6a.787.787,0,0,1,1.5.335h1.074A1.863,1.863,0,0,0,276.3,170Z" transform="translate(-272.501 -170.003)" fill="#fff"/>
        </g>
      </g>
      <g id="Group_449" data-name="Group 449" transform="translate(28.684 18.617)">
        <g id="Group_448" data-name="Group 448" transform="translate(0 0)">
          <rect id="Rectangle_375" data-name="Rectangle 375" width="1.074" height="4.225" transform="translate(0 0.175) rotate(-9.393)" fill="#fff"/>
        </g>
      </g>
      <g id="Group_451" data-name="Group 451" transform="translate(30.38 28.871)">
        <g id="Group_450" data-name="Group 450" transform="translate(0 0)">
          <rect id="Rectangle_376" data-name="Rectangle 376" width="1.074" height="2.637" transform="matrix(0.987, -0.163, 0.163, 0.987, 0, 0.175)" fill="#fff"/>
        </g>
      </g>
      <g id="Group_453" data-name="Group 453" transform="translate(39.476 30.989)">
        <g id="Group_452" data-name="Group 452" transform="translate(0 0)">
          <rect id="Rectangle_377" data-name="Rectangle 377" width="1.397" height="1.074" transform="translate(0 1.393) rotate(-85.458)" fill="#fff"/>
        </g>
      </g>
      <g id="Group_455" data-name="Group 455" transform="translate(39.922 22.685)">
        <g id="Group_454" data-name="Group 454" transform="translate(0 0)">
          <rect id="Rectangle_378" data-name="Rectangle 378" width="4.094" height="1.074" transform="translate(0 4.081) rotate(-85.458)" fill="#fff"/>
        </g>
      </g>
      <g id="Group_457" data-name="Group 457" transform="translate(40.376 18.665)">
        <g id="Group_456" data-name="Group 456" transform="translate(0 0)">
          <rect id="Rectangle_379" data-name="Rectangle 379" width="2.381" height="1.074" transform="translate(0 2.374) rotate(-85.458)" fill="#fff"/>
        </g>
      </g>
    </g>
  </g>
</svg>
