<svg xmlns="http://www.w3.org/2000/svg" width="64" height="64" viewBox="0 0 64 64">
  <g id="Group_458" data-name="Group 458" transform="translate(-273 -4814)">
    <g id="Group_430" data-name="Group 430">
      <circle id="Ellipse_32" data-name="Ellipse 32" cx="32" cy="32" r="32" transform="translate(273 4814)" fill="#be0000"/>
      <g id="grocery" transform="translate(289.04 4828.899)">
        <path id="Path_180" data-name="Path 180" d="M367.84,69.873l1.084-.353,1.113,3.421-1.084.353Zm0,0" transform="translate(-341.629 -64.567)" fill="#fff"/>
        <path id="Path_181" data-name="Path 181" d="M344.391,125.88l1.084-.353,1.114,3.42-1.084.353Zm0,0" transform="translate(-319.851 -116.583)" fill="#fff"/>
        <path id="Path_182" data-name="Path 182" d="M52.292,10.96a3.106,3.106,0,0,0,.7,2.425l.823,1.032v9.525h1.14V15.316l.824.549a.571.571,0,0,0,.633,0l1.394-.93,1.394.929a.571.571,0,0,0,.633,0l1.394-.929,1.394.929a.571.571,0,0,0,.633,0l1.394-.929,1.394.929a.571.571,0,0,0,.633,0l1.394-.929,1.14.76V33.062H56.665V34.2H72.627a2.854,2.854,0,0,0,2.85-2.85V14.25a.565.565,0,0,0-.122-.345l3.294-8.77A3.84,3.84,0,0,0,78.215,1.6,3.642,3.642,0,0,0,75.187,0a3.732,3.732,0,0,0-3.463,2.429l-.894,2.379L69.776,3.753V1.709a.57.57,0,0,0-.57-.57H62.936a.57.57,0,0,0-.57.57v.978a1.78,1.78,0,0,0-2.3-.078v-.9a1.69,1.69,0,1,0-3.379,0v.9a1.745,1.745,0,0,0-2.36.127,1.806,1.806,0,0,0-.01,2.505l.531.548a1.746,1.746,0,0,0-.517.363l0,0-.006.006A1.756,1.756,0,0,0,54,6.626l-.65-1.2-1,.543L53.819,8.69c-.066.038-.132.074-.195.117-.023.016-.044.034-.067.05L51.351,6.824l-.773.838,2.191,2.02a3.11,3.11,0,0,0-.478,1.277Zm12.038,2.817-1.394.93-1.394-.929a.571.571,0,0,0-.633,0l-1.381.921c0-.057-.013-.107-.013-.161A2.558,2.558,0,0,1,64.5,13.7a.576.576,0,0,0-.166.072Zm1.457.549-.011-.007a3.7,3.7,0,0,0-5.12-3.2V7.41h5.131Zm8.551,17.027a1.71,1.71,0,0,1-1.71,1.71h-2.28V15.7l1.14-.761,1.394.929a.571.571,0,0,0,.633,0l.824-.548ZM72.792,2.829a2.587,2.587,0,0,1,2.4-1.69,2.517,2.517,0,0,1,2.09,1.108,2.7,2.7,0,0,1,.3,2.487l-3.53,9.4-.855.57L71.8,13.777a.571.571,0,0,0-.633,0l-1.394.929-1.157-.771Zm-2.4,3.151-3.025,8.053-.439.293V7.076l2.28-2.28Zm-6.885-3.7h5.131v1.14H63.506Zm-.334,2.28H67.83L66.12,6.27H61.462Zm-8.03-1.023a.607.607,0,0,1,.872,0l.837.855a.57.57,0,0,0,.977-.4V1.709a.55.55,0,1,1,1.1,0v2.28a.57.57,0,0,0,.977.4l.84-.855a.617.617,0,0,1,.867,0,.652.652,0,0,1,0,.912L59.93,6.155l.017.017-.264.264a.566.566,0,0,0-.11.163c-.008.018-.013.035-.019.053a.571.571,0,0,0-.031.151c0,.013-.007.023-.007.035v5.028a3.651,3.651,0,0,0-.36.4L58.079,9.975a3.078,3.078,0,0,0-1.972-1.6,3,3,0,0,0-.609-.092l-.146-.171c-.114-.131-.2-.232-.214-.247a.66.66,0,0,1-.171-.58.632.632,0,0,1,.158-.318l.01-.01.014-.015a.611.611,0,0,1,.767-.072.57.57,0,0,0,.728-.868L55.137,4.451a.658.658,0,0,1,0-.914Zm-1.72,7.578a1.961,1.961,0,0,1,.841-1.361,1.923,1.923,0,0,1,2.793.724l1.453,3.095a3.652,3.652,0,0,0-.085.405l-.3-.2a.57.57,0,0,0-.633,0l-1.4.929-1.264-.844-.122-.153,1.47-1.136-.7-.9L54,12.818l-.127-.158a1.974,1.974,0,0,1-.45-1.545Zm0,0" transform="translate(-46.974 0)" fill="#fff"/>
        <path id="Path_183" data-name="Path 183" d="M1.217,329.98a2.558,2.558,0,0,0,2.3,1.422,2.589,2.589,0,0,0,1.15-.271l.462-.231.463.231a2.587,2.587,0,0,0,1.15.271,2.558,2.558,0,0,0,2.3-1.422l.2-.4a9.7,9.7,0,0,0,1.018-4.311,2.977,2.977,0,0,0-4.56-2.533v-.456A2.28,2.28,0,0,0,3.42,320v1.14a1.14,1.14,0,0,1,1.14,1.14v.456A2.977,2.977,0,0,0,0,325.269a9.7,9.7,0,0,0,1.018,4.312Zm1.772-6.559a1.836,1.836,0,0,1,1.307.542l.431.431a.57.57,0,0,0,.806,0l.431-.431a1.849,1.849,0,0,1,3.156,1.307,8.539,8.539,0,0,1-.9,3.8l-.2.4a1.425,1.425,0,0,1-1.281.79,1.44,1.44,0,0,1-.64-.151l-.718-.359a.57.57,0,0,0-.51,0l-.717.359a1.442,1.442,0,0,1-.641.151,1.425,1.425,0,0,1-1.281-.792l-.2-.4a8.54,8.54,0,0,1-.9-3.8,1.851,1.851,0,0,1,1.849-1.849Zm0,0" transform="translate(0 -297.199)" fill="#fff"/>
      </g>
    </g>
  </g>
</svg>
