<svg xmlns="http://www.w3.org/2000/svg" xmlns:xlink="http://www.w3.org/1999/xlink" width="65" height="64" viewBox="0 0 65 64">
  <defs>
    <linearGradient id="linear-gradient" x1="0.5" x2="0.5" y2="1" gradientUnits="objectBoundingBox">
      <stop offset="0" stop-color="#cfba9f"/>
      <stop offset="0.456" stop-color="#ae8c61"/>
      <stop offset="1" stop-color="#937144"/>
    </linearGradient>
  </defs>
  <g id="Group_368" data-name="Group 368" transform="translate(0.404 -0.109)">
    <ellipse id="Ellipse_49" data-name="Ellipse 49" cx="32.5" cy="32" rx="32.5" ry="32" transform="translate(-0.404 0.109)" fill="url(#linear-gradient)"/>
    <g id="tree" transform="translate(16.2 15.932)">
      <path id="Path_120" data-name="Path 120" d="M34.677,35.906a.511.511,0,1,0-.933-.415,2.663,2.663,0,0,1-3.37,1.451,2.237,2.237,0,0,1-1.4-1.5.511.511,0,0,0-.881-.207,2.634,2.634,0,0,1-2.9.674,1.734,1.734,0,0,1-.881-.622.579.579,0,0,0-.881.156,2.824,2.824,0,0,1-1.4,1.5,2.666,2.666,0,0,1-2.747-.467.623.623,0,0,0-.726,0,3.477,3.477,0,0,1-.726.467,2.592,2.592,0,0,1-1.97,0,2.456,2.456,0,0,1-1.348-1.348.652.652,0,0,0-.933-.363,3.077,3.077,0,0,1-.933.674,2.587,2.587,0,0,1-2.9-.674.627.627,0,0,0-.881.156,2.879,2.879,0,0,1-1.451,1.5,2.571,2.571,0,0,1-1.866.052.525.525,0,0,0-.363.985,3.719,3.719,0,0,0,2.592-.052,4.077,4.077,0,0,0,1.659-1.451,3.584,3.584,0,0,0,3.525.415,2.939,2.939,0,0,0,.674-.415,3.478,3.478,0,0,0,1.659,1.451,3.35,3.35,0,0,0,1.4.259,3.659,3.659,0,0,0,1.451-.311c.207-.1.415-.207.674-.363a3.578,3.578,0,0,0,5.132-1.089,3.305,3.305,0,0,0,.726.415,3.741,3.741,0,0,0,3.473-.415,3.409,3.409,0,0,0,1.711,1.451,3.683,3.683,0,0,0,4.821-1.918Z" transform="translate(-2.835 -17.353)" fill="#fff" stroke="#fff" stroke-width="0.2"/>
      <path id="Path_121" data-name="Path 121" d="M37.563,2.4a2.5,2.5,0,0,1,1.5,1.711.573.573,0,0,0,.726.363,2.463,2.463,0,0,1,1.918,0,3.136,3.136,0,0,1,1.5,1.555.493.493,0,0,0,.518.311A2.134,2.134,0,0,1,44.82,6.5a2.657,2.657,0,0,1,1.451,3.318c-.156.415.311.726.57.674a2.134,2.134,0,0,1,1.089.156,2.663,2.663,0,0,1,1.451,3.37,3,3,0,0,1-.933,1.192.552.552,0,0,0,0,.881,2.437,2.437,0,0,1,.985,1.3c.052.207.259.415.674.311a.519.519,0,0,0,.311-.674,3.371,3.371,0,0,0-.881-1.4,3.8,3.8,0,0,0,.829-1.192,3.669,3.669,0,0,0-2.022-4.717,3.073,3.073,0,0,0-.881-.207,3.7,3.7,0,0,0-2.229-3.94,5.665,5.665,0,0,0-1.244-.207,3.647,3.647,0,0,0-1.918-1.814,3.315,3.315,0,0,0-2.229-.156,3.575,3.575,0,0,0-1.97-1.918.539.539,0,0,0-.674.311.629.629,0,0,0,.363.622Z" transform="translate(-18.421 -1.165)" fill="#fff" stroke="#fff" stroke-width="0.2"/>
      <path id="Path_122" data-name="Path 122" d="M2.077,15.472a3.672,3.672,0,0,0-.829,3.992.5.5,0,0,0,.674.259.475.475,0,0,0,.259-.674,2.7,2.7,0,0,1,.933-3.162.524.524,0,0,0,0-.829,2.722,2.722,0,0,1-.985-1.192A2.548,2.548,0,0,1,3.58,10.5a3.3,3.3,0,0,1,1.244-.207.5.5,0,0,0,.467-.674,2.6,2.6,0,0,1,1.5-3.266,2,2,0,0,1,1.089-.156.5.5,0,0,0,.57-.363A2.523,2.523,0,0,1,9.9,4.275a2.715,2.715,0,0,1,1.918,0,.566.566,0,0,0,.726-.311,2.82,2.82,0,0,1,1.5-1.763,2.489,2.489,0,0,1,2.644.467.545.545,0,0,0,.674,0A4.477,4.477,0,0,1,18.2,2.15a.539.539,0,0,0,.311-.674.539.539,0,0,0-.674-.311,5.666,5.666,0,0,0-.778.415,3.407,3.407,0,0,0-3.421-.363,3.652,3.652,0,0,0-1.918,1.918A4.1,4.1,0,0,0,9.49,3.29,3.472,3.472,0,0,0,7.571,5.1a3.075,3.075,0,0,0-1.192.259A3.633,3.633,0,0,0,4.15,9.3a2.845,2.845,0,0,0-.881.259A3.67,3.67,0,0,0,1.247,11.48a3.6,3.6,0,0,0,0,2.747,4.022,4.022,0,0,0,.829,1.244Z" transform="translate(-0.975 -0.911)" fill="#fff" stroke="#fff" stroke-width="0.2"/>
      <path id="Path_123" data-name="Path 123" d="M27.518,46.114a.49.49,0,0,0,.518-.518V43.418a.518.518,0,1,0-1.037,0V45.6A.519.519,0,0,0,27.518,46.114Z" transform="translate(-13.509 -21.133)" fill="#fff" stroke="#fff" stroke-width="0.2"/>
      <path id="Path_124" data-name="Path 124" d="M59.592,61H57.518a.518.518,0,0,0,0,1.037h2.074a.518.518,0,0,0,0-1.037Z" transform="translate(-27.957 -29.851)" fill="#fff" stroke="#fff" stroke-width="0.2"/>
      <path id="Path_125" data-name="Path 125" d="M37.144,52.235h-7.05a6.574,6.574,0,0,1-1.763-4.51V43.318a.518.518,0,0,0-1.037,0v4.406a7.673,7.673,0,0,0,1.451,4.51H22.732a7.673,7.673,0,0,0,1.451-4.51.518.518,0,1,0-1.037,0,6.574,6.574,0,0,1-1.763,4.51H19.518a.518.518,0,1,0,0,1.037H37.144a.518.518,0,0,0,0-1.037Z" transform="translate(-9.656 -21.085)" fill="#fff" stroke="#fff" stroke-width="0.2"/>
      <path id="Path_126" data-name="Path 126" d="M8.776,61H1.518a.518.518,0,0,0,0,1.037H8.776a.518.518,0,0,0,0-1.037Z" transform="translate(-0.987 -29.851)" fill="#fff" stroke="#fff" stroke-width="0.2"/>
      <path id="Path_127" data-name="Path 127" d="M17,10.555a.518.518,0,0,0,1.037,0,.49.49,0,0,1,.518-.518.518.518,0,0,0,0-1.037A1.527,1.527,0,0,0,17,10.555Z" transform="translate(-8.693 -4.807)" fill="#fff" stroke="#fff" stroke-width="0.2"/>
      <path id="Path_128" data-name="Path 128" d="M57.074,22.555A1.527,1.527,0,0,0,55.518,21a.518.518,0,1,0,0,1.037.49.49,0,0,1,.518.518.518.518,0,1,0,1.037,0Z" transform="translate(-26.994 -10.586)" fill="#fff" stroke="#fff" stroke-width="0.2"/>
      <path id="Path_129" data-name="Path 129" d="M6.037,33.518A.49.49,0,0,0,5.518,33,.49.49,0,0,0,5,33.518a1.527,1.527,0,0,0,1.555,1.555.518.518,0,0,0,0-1.037A.49.49,0,0,1,6.037,33.518Z" transform="translate(-2.913 -16.366)" fill="#fff" stroke="#fff" stroke-width="0.2"/>
      <path id="Path_130" data-name="Path 130" d="M35.518,35.074a1.527,1.527,0,0,0,1.555-1.555.518.518,0,1,0-1.037,0,.49.49,0,0,1-.518.518.518.518,0,0,0,0,1.037Z" transform="translate(-17.362 -16.366)" fill="#fff" stroke="#fff" stroke-width="0.2"/>
    </g>
  </g>
</svg>
